<?xml version="1.0" encoding="UTF-8"?>
<svg id="Capa_1" data-name="Capa 1" xmlns="http://www.w3.org/2000/svg" viewBox="0 0 578.43 372.56">
  <g id="_000000ff" data-name="#000000ff">
    <path d="m239.39,28.02c27.27-6.54,56.73-3.59,82.09,8.41,26.91,12.53,49,35.02,61.06,62.15,8.91,19.83,12.49,42.05,10.19,63.67-1.05,1.36-2.92-1.35-2.31-2.61,2.43-28.93-5.88-58.6-23.09-82-17.98-24.89-45.67-42.52-75.85-48.21-26.34-5.15-54.33-1.22-78.23,10.97-24.69,12.39-44.83,33.46-56.26,58.59-9.31,20.43-12.91,43.49-9.97,65.77,3.73,1.4,5.12,6.7,1.62,9.14.25,2.41.86,4.75,1.48,7.09,1.82.01,3.63.08,5.45.22,2.84,1.32,5.67,3.35,6.67,6.47,1.29,2.09.48,4.77.53,7.09-1.04,1.7-1.61,3.77-3.35,4.94-.67.7-2.24,1.23-1.49,2.45,2.25,4.96,4.96,9.71,8.02,14.21-.5.54-1.52,1.63-2.03,2.17-3.19-5.33-6.29-10.71-9.06-16.27-2.2.11-4.41.07-6.6-.19-5.59-2.33-8.58-9.09-6.2-14.74,1.17-2.14,2.81-3.88,4.89-5.13.84-2.25-.68-4.77-.93-7.08-2.57-.6-5.23-2.59-4.89-5.52-.04-2.1,1.66-3.52,3.16-4.69-3.47-28.64,3.12-58.45,18.84-82.69,17.15-27.01,45.09-46.93,76.26-54.21Z" style="stroke-width: 0px;"/>
    <path d="m242.37,41.54c-.91-2.87,2.2-2.23,3.97-2.61,1.42,2.9-2.25,2.3-3.97,2.61Z" style="stroke-width: 0px;"/>
    <path d="m250.44,38.76c1.54-.08,3.11-.23,4.62.19-.12.44-.37,1.33-.49,1.77-1.27.03-2.54.06-3.8.1-.08-.51-.25-1.54-.33-2.06Z" style="stroke-width: 0px;"/>
    <path d="m258.7,38.85c1.47,0,2.95.02,4.43.09-.05.53-.15,1.57-.21,2.09-1.29-.06-2.57-.12-3.86-.18l-.36-2Z" style="stroke-width: 0px;"/>
    <path d="m266.63,41.15c.56-2.53,2.95-1.38,4.74-1.14-.08.54-.24,1.6-.32,2.14-1.5-.22-2.98-.56-4.42-1Z" style="stroke-width: 0px;"/>
    <path d="m233.9,41.06c1.39-.34,2.78-.69,4.18-1.02.08.54.25,1.61.33,2.15-1.27.25-2.53.51-3.79.77-.24-.63-.48-1.26-.72-1.9Z" style="stroke-width: 0px;"/>
    <path d="m275.46,40.83c1.34.33,2.69.66,4.03.99.63,3.33-5.74,1.81-4.03-.99Z" style="stroke-width: 0px;"/>
    <path d="m225.87,43.2c1.31-.43,2.64-.84,3.97-1.26.39.78.79,1.56,1.19,2.34-1.46.08-2.88.28-4.23.84-.32-.64-.63-1.28-.93-1.92Z" style="stroke-width: 0px;"/>
    <path d="m283.57,43.06c1.68.61,4.62.66,3.57,3.25-1.43-.36-2.84-.79-4.22-1.26.21-.66.43-1.33.65-1.99Z" style="stroke-width: 0px;"/>
    <path d="m218.16,46.09c1.36-.63,2.68-1.33,3.99-2.08.13.62.39,1.86.52,2.48-1.25.49-2.51.98-3.76,1.47-.26-.62-.51-1.24-.75-1.87Z" style="stroke-width: 0px;"/>
    <path d="m291.22,46.03c1.43.39,2.8.99,4.06,1.79-.24.41-.72,1.24-.96,1.66-1.2-.5-2.39-1-3.58-1.49.12-.49.36-1.47.48-1.96Z" style="stroke-width: 0px;"/>
    <path d="m214.1,47.69c2.21,1.95-.8,3.06-2.53,3.78-.25-.43-.74-1.28-.99-1.71,1.17-.69,2.34-1.38,3.52-2.07Z" style="stroke-width: 0px;"/>
    <path d="m298.75,49.62c1.47.49,5.29,1.81,2.72,3.64-1.21-.61-2.36-1.31-3.5-2.02.19-.4.58-1.21.78-1.62Z" style="stroke-width: 0px;"/>
    <path d="m203.3,53.89c1.25-.75,2.51-1.5,3.78-2.23,2.14,1.89-1.17,2.9-2.28,4.01-.49-.6-.99-1.2-1.5-1.78Z" style="stroke-width: 0px;"/>
    <path d="m304.98,55.04c.34-.3,1.02-.91,1.37-1.21,1.09.74,2.19,1.48,3.29,2.22-.41.59-.81,1.19-1.21,1.8-1.24-.83-2.42-1.74-3.45-2.81Z" style="stroke-width: 0px;"/>
    <path d="m197.63,60.42c-2.15-2.08,1.26-3.24,2.6-4.25,2.08,2.29-1.23,3.09-2.6,4.25Z" style="stroke-width: 0px;"/>
    <path d="m312.64,58.55c1.27.81,2.48,1.7,3.65,2.65-.8,3.06-6.14-.64-3.65-2.65Z" style="stroke-width: 0px;"/>
    <path d="m190.23,64.16c1.39-1.04,2.94-3.7,4.6-1.48-1.01,1.07-2.07,2.08-3.18,3.04-.36-.39-1.07-1.17-1.42-1.56Z" style="stroke-width: 0px;"/>
    <path d="m317.97,65.6c1.2-2.88,3.04.12,4.38,1.21-.51.54-1.03,1.07-1.56,1.59-.93-.94-1.88-1.87-2.82-2.8Z" style="stroke-width: 0px;"/>
    <path d="m185.67,71.64c-2.34-1.66.52-3.2,1.58-4.57.35.44,1.03,1.3,1.38,1.73-.98.97-1.97,1.9-2.96,2.84Z" style="stroke-width: 0px;"/>
    <path d="m323.69,71.11c.37-.28,1.09-.85,1.46-1.13,1.01,1.09,1.97,2.24,2.87,3.43-.69.3-1.38.59-2.06.89-.77-1.06-1.53-2.12-2.27-3.19Z" style="stroke-width: 0px;"/>
    <path d="m179.09,76.67c.86-1.13,1.73-2.26,2.6-3.39.54.54,1.05,1.1,1.54,1.69-.83.96-1.64,1.93-2.44,2.91-.43-.3-1.28-.91-1.7-1.21Z" style="stroke-width: 0px;"/>
    <path d="m183.53,124.58c29.66-16.52,59.36-32.98,89-49.53,1.18,1.31,2.37,2.63,3.62,3.89.13,1.56.25,3.13.27,4.71-.04,72.89.04,145.79-.04,218.68-1.53,1.68-2.87,3.51-4.48,5.12-39.77-22.75-79.51-45.53-119.39-68.07-.1-1.84-.14-3.69-.09-5.53,37.35-20.59,74.63-41.3,111.97-61.94-20.32-11.15-40.7-22.21-61.04-33.33-5.65-3.03-11.19-6.28-16.99-9.03-1.22-1.47-1.88-3.33-2.83-4.97m68.64-29.94c-.53.31-1.57.95-2.1,1.27-17.84,9.57-35.33,19.77-53.18,29.33l-.66-.12c.48,2.06,2.55,2.94,4.16,4.01l.23-.04c18.59,9.76,36.93,20.01,55.36,30.08l.08.35c1.13.35,2.26.69,3.4,1.04,2.69,2.52,6.51,3.67,9.58,5.74.31-17.84.05-35.7.13-53.56,0-.65.02-1.95.02-2.6-.03-8.33-.01-16.65-.01-24.97-5.67,3.16-11.35,6.3-17.01,9.47m-11.32,98.44c-.78.46-1.55.92-2.32,1.39-25.36,13.93-50.6,28.07-75.97,41.97.66.67,1.6.86,2.52.88.74,1.15,1.73,2.16,3.05,2.61,27.01,15.41,54.05,30.75,81,46.26l.04.28c1.23.43,2.48.8,3.74,1.12.36,1.11,1.6,1.51,2.48,2.13,4.57,2.58,9.15,5.17,13.69,7.82.21-26.85.07-53.71.07-80.56,0-.64.01-1.91.01-2.54.04-12.31-.01-24.62.03-36.93-9.49,5.11-18.83,10.49-28.34,15.57Z" style="stroke-width: 0px;"/>
    <path d="m289.74,77.93c1.42-.89,2.61-2.07,3.78-3.27,37.83,37.83,75.69,75.64,113.49,113.51,1.51,1.27.74,3.42.95,5.14-27.84,27.46-55.31,55.3-83.05,82.86-.75.97-2.49,1.61-1.86,3.18l-1.28-.41.2,1.11c-1.39,0-2.12,1.28-3.03,2.09-7.12,7.2-14.32,14.33-21.48,21.5-.7.74-1.29,1.56-1.77,2.47-2.12.47-4.3.5-6.45.46,0-72.97,0-145.93,0-218.9.04-3.25-.24-6.54.51-9.74m6.68,9.81c.04,21.55-.14,43.11.09,64.66-.02.59-.07,1.77-.09,2.36-.01,46.56-.04,93.12.02,139.68,7.53-7.35,14.89-14.89,22.38-22.29.87-.99,2.06-1.86,2.35-3.22,1.26-.68,2.47-1.47,3.62-2.33v-.3c23.5-23.79,47.23-47.35,70.89-70.97,1.39-.84,2.16-2.26,2.88-3.66l1.31-.06c-1.84-2.63-4.33-4.69-6.54-6.98-20.7-20.68-41.35-41.41-62.09-62.05-.54-.41-1.62-1.22-2.16-1.62-.16-.31-.5-.93-.66-1.24-10.66-10.67-21.31-21.34-32-31.98Z" style="stroke-width: 0px;"/>
    <path d="m331.09,80.98c-.69-1.3-3.59-3.67-.67-4.31,1.19.72,1.72,2.13,2.53,3.22-.63.36-1.24.72-1.86,1.09Z" style="stroke-width: 0px;"/>
    <path d="m174.37,83.47c.83-1.22,1.7-2.4,2.62-3.55,2.4,1.25,0,3.25-.77,4.73-.47-.29-1.39-.88-1.85-1.18Z" style="stroke-width: 0px;"/>
    <path d="m334.88,83.24c1.1,1.26,3.83,4.29.67,4.61-.74-1.06-1.38-2.18-2.03-3.28.34-.33,1.02-1,1.36-1.33Z" style="stroke-width: 0px;"/>
    <path d="m172.21,91.82c-2.98-.49-.64-3.18.06-4.66.46.25,1.38.74,1.84.98-.63,1.23-1.27,2.45-1.9,3.68Z" style="stroke-width: 0px;"/>
    <path d="m339.19,95.2c-.67-1.4-2.82-4.35.13-4.49.69,1.19,1.23,2.46,1.83,3.71-.66.26-1.31.52-1.96.78Z" style="stroke-width: 0px;"/>
    <path d="m168.62,94.6c.46.24,1.37.74,1.83.99-.55,1.24-1.1,2.5-1.65,3.75-.63-.38-1.27-.75-1.9-1.13.58-1.2,1.15-2.41,1.72-3.61Z" style="stroke-width: 0px;"/>
    <path d="m340.79,98.97c2.53-2.03,2.76,1.81,3.43,3.41-2.52,1.12-2.77-1.75-3.43-3.41Z" style="stroke-width: 0px;"/>
    <path d="m163.79,106.22c1.39.16.63-5.28,3.43-3.35.08,1.49-.64,2.85-1.21,4.18-.56-.21-1.66-.62-2.22-.83Z" style="stroke-width: 0px;"/>
    <path d="m343.47,106.69c.71-.17,1.41-.33,2.13-.49.3,1.62,1.84,4.63-1.02,4.51-.37-1.34-.74-2.68-1.11-4.02Z" style="stroke-width: 0px;"/>
    <path d="m162.23,114.45c.35-1.78.27-4.69,2.96-3.71-.31,1.43-.68,2.85-1.05,4.26-.48-.14-1.43-.41-1.91-.55Z" style="stroke-width: 0px;"/>
    <path d="m345.44,114.61c2.88-1.43,2.41,2.33,2.81,3.92-2.77.89-2.43-2.2-2.81-3.92Z" style="stroke-width: 0px;"/>
    <path d="m161.46,118.56c2.93-.45,1.67,2.76,1.53,4.47-.49-.06-1.48-.19-1.97-.25.11-1.41.25-2.82.44-4.22Z" style="stroke-width: 0px;"/>
    <path d="m160.64,126.83c.51.07,1.54.22,2.06.3-.29,1.42.57,4.65-1.87,4.13-.8-1.33-.15-2.98-.19-4.43Z" style="stroke-width: 0px;"/>
    <path d="m160.33,135.36c.73-.06,1.46-.08,2.2-.07.04,1.31.09,2.62.15,3.94-.51.08-1.51.24-2.02.32-.12-1.4-.23-2.8-.33-4.19Z" style="stroke-width: 0px;"/>
    <path d="m160.9,143.87c.67-.21,1.35-.42,2.03-.63.16,1.71,1.58,4.99-1.39,4.55-.22-1.31-.43-2.61-.64-3.92Z" style="stroke-width: 0px;"/>
    <path d="m162.35,151.76c.65-.09,1.31-.18,1.97-.27.29,1.35.58,2.7.89,4.05-2.77,1.34-2.53-2.03-2.86-3.78Z" style="stroke-width: 0px;"/>
    <path d="m165.62,163.99c-.54-1.66-2.42-4.7.64-4.64.4,1.34.8,2.68,1.18,4.03-.46.16-1.37.46-1.82.61Z" style="stroke-width: 0px;"/>
    <path d="m201.84,172.17c-1.7-4.54,1.69-9.98,6.5-10.46,5.01-.86,9.88,3.99,8.98,9-.39,3.62-3.48,6.25-6.89,6.97-.03,5.96-.05,11.93,0,17.89-.51.33-1.52.97-2.02,1.29-.04-6.39.02-12.77-.03-19.16-2.88-.73-5.67-2.54-6.55-5.53m5.11-7.83c-3.9,1.62-4.52,7.53-1.05,9.92,3.15,2.62,8.52.62,9.2-3.41,1.23-4.46-4.06-8.69-8.15-6.51Z" style="stroke-width: 0px;"/>
    <path d="m168.89,167.07c.6,1.6,2.62,4.27-.24,4.73-.56-1.27-1.12-2.54-1.68-3.8.48-.23,1.44-.7,1.92-.93Z" style="stroke-width: 0px;"/>
    <path d="m172.27,179.13c-.75-1.45-2.89-4.1-.05-4.62.66,1.25,1.33,2.5,1.98,3.76-.64.28-1.29.57-1.93.86Z" style="stroke-width: 0px;"/>
    <path d="m216.94,179.62c.64.24,1.92.73,2.56.98.18,3.94.31,7.92-.02,11.86-.64.23-1.92.68-2.56.9.24-4.58.17-9.17.02-13.74Z" style="stroke-width: 0px;"/>
    <path d="m174.47,182.91c1.76-2.6,3.13.94,4.01,2.34-.43.26-1.3.77-1.73,1.03-.76-1.13-1.52-2.25-2.28-3.37Z" style="stroke-width: 0px;"/>
    <path d="m181.83,193.03c-1.18-1.36-3.66-3.48-.91-4.6.8,1.08,1.61,2.16,2.42,3.24-.51.44-1.01.9-1.51,1.36Z" style="stroke-width: 0px;"/>
    <path d="m184.51,196.24c1.45-2.77,3.16.4,4.4,1.6-.58.43-1.16.86-1.73,1.29-.89-.97-1.78-1.93-2.67-2.89Z" style="stroke-width: 0px;"/>
    <path d="m191.49,200.83c1.33-.39,2.96,1.53,1.8,2.65-1.66,1.3-4.17-1.82-1.8-2.65Z" style="stroke-width: 0px;"/>
    <path d="m378.25,261.19c-2.79-.74-.33-2.45,1.11-2.63,9.41,7.02,19.01,13.79,28.59,20.57-8.61,5.13-17.67,9.52-26.48,14.31.06-8.46,1.57-16.91,1.7-25.39,1.36.3,2.7-.94,1.61-2.13-2.03-1.76-4.29-3.26-6.53-4.73m7.37,7.14c.11,6.75-1,13.48-1.34,20.22,6.04-3.12,11.97-6.47,18.06-9.49-.25-.76-.71-1.33-1.37-1.73-4.21-2.63-7.89-6.06-12.27-8.43l.1-1.24c-1.09.09-2.18.22-3.18.67Z" style="stroke-width: 0px;"/>
    <path d="m349.99,293.59c4.95-6.97,9.74-14.07,14.81-20.95,3.47,6.51,7.3,12.84,10.51,19.49-6.21-.58-12.44-.92-18.64-1.56-.04-.45-.1-1.36-.14-1.82,5.12.21,10.23.66,15.33,1.13-2.58-4.47-5.01-9.01-7.48-13.54-4.49,6.42-8.85,12.95-13.59,19.18-.2-.48-.6-1.44-.8-1.93Z" style="stroke-width: 0px;"/>
    <path d="m208.41,275.62h3c0,8.44-.03,16.87.02,25.31,1.89-1.84,3.93-3.59,5.51-5.72.36-4.97-.13-9.97.28-14.94.59.33,1.76.99,2.35,1.32.22,4.26-.05,8.53.13,12.8.85.71,1.66,1.48,2.43,2.29-.83,1.04-1.67,2.1-2.49,3.16-.03,8.45.1,16.91-.08,25.37,2.36-2.56,4.79-5.04,7.06-7.67,1.61-.47,3.89,1.18,3.52,3.03-3.4,4.05-7.12,7.81-10.6,11.8-.71-.14-2.14-.43-2.85-.57-3.77-3.72-7.49-7.5-11.25-11.23.94-1.25,1.93-2.46,3.15-3.45,2.87,2.74,5.63,5.61,8.48,8.38,0-7.71-.1-15.42.06-23.13-2.39,2.38-4.66,4.89-6.93,7.39-4.71-3.56-8.41-8.29-12.78-12.25,1.01-1.21,2.18-2.26,3.46-3.18,2.42,2.65,4.98,5.17,7.51,7.72.04-8.81.01-17.62.02-26.43Z" style="stroke-width: 0px;"/>
  </g>
  <g id="_474643ff" data-name="#474643ff">
    <path d="m250.07,95.91c.53-.32,1.57-.96,2.1-1.27,2.66,5.19,5.09,10.5,7.92,15.6,3.03-.09,6.07-.1,9.1-.1,0,.65-.01,1.95-.02,2.6-2.57.01-5.14.01-7.71,0-4.11,5.94-8.97,11.53-12.44,17.81,3.28,10.07,7.05,19.98,10.44,30.02-1.14-.35-2.27-.69-3.4-1.04l-.08-.35c-2.61-9.12-6.18-17.95-9.24-26.93-12.47-1.01-24.95-2.04-37.42-3.07-2.89-.21-5.84-.77-8.7-.08l-.23.04c-1.61-1.07-3.68-1.95-4.16-4.01l.66.12c16.31,2.03,32.78,2.86,49.16,4.31,4.07-5.63,8.16-11.25,12.2-16.91-2.7-5.59-5.7-11.03-8.18-16.73Z" style="fill: #474643; stroke-width: 0px;"/>
    <path d="m329.08,120.96c.54.4,1.62,1.21,2.16,1.62-2.84,10.37-6.58,20.54-9.06,30.98,5.48,14.69,10.72,29.48,16.12,44.2,20.1-1.95,40.14-4.47,60.26-6.09-.72,1.4-1.49,2.82-2.88,3.66l.31-1.02c-18.77,1.99-37.54,4.03-56.33,5.85-4.56,18.51-8.58,37.16-12.91,55.72-.68,3.46-1.98,6.85-1.95,10.42v.3c-1.16.86-2.37,1.65-3.63,2.33,4.88-22.11,10.11-44.15,15.11-66.24.79-2.36-.71-4.54-1.38-6.72-4.98-13.69-10-27.36-14.88-41.09-7.87-.17-15.74.04-23.6-.12.02-.59.07-1.77.09-2.36,7.65-.23,15.31-.09,22.97-.06,3.37-10.41,6.35-20.94,9.6-31.38Z" style="fill: #474643; stroke-width: 0px;"/>
    <path d="m238.53,194.47c.77-.47,1.54-.93,2.32-1.39,3.05,7.19,6.44,14.23,9.67,21.34,6.21.01,12.43-.02,18.64.02,0,.63-.01,1.9-.01,2.54-5.22.12-10.43-.05-15.64.05-1.33-.23-1.85,1.28-2.57,2.06-5.37,7.81-10.81,15.56-16.13,23.4,6.04,15.03,12.22,30,18.1,45.1-1.26-.32-2.51-.69-3.74-1.12l-.04-.28c-.17-2.48-1.39-4.69-2.28-6.95-4.81-11.87-9.56-23.77-14.39-35.64-5.03.11-10.06-.09-15.04-.82-16.42-1.03-32.87-1.77-49.29-2.85-1.32-.45-2.31-1.46-3.05-2.61,14.11.56,28.2,1.57,42.31,2.24,8.44-.15,16.77,1.36,25.21,1.42,5.54-7.79,10.85-15.75,16.38-23.55-3.41-7.69-6.98-15.3-10.45-22.96Z" style="fill: #474643; stroke-width: 0px;"/>
  </g>
  <g id="_7e7e7eff" data-name="#7e7e7eff">
    <path d="m396.73,134.84c2.38,1.38,4.72,2.83,6.94,4.47,1.58.42.35,3.48-1.07,2.09-2.25-1.51-4.76-2.76-6.68-4.67.2-.47.61-1.42.81-1.89Z" style="fill: #7e7e7e; stroke-width: 0px;"/>
    <path d="m407.39,145.25c-.05-1.22.52-1.74,1.71-1.54,2.23,2,4.83,3.82,6.25,6.53-.41.28-1.23.84-1.64,1.12-2.03-2.12-4.26-4.04-6.32-6.11Z" style="fill: #7e7e7e; stroke-width: 0px;"/>
    <path d="m424.64,166.12c.61-.07,1.82-.21,2.43-.29,1.53,2.53,2.85,5.2,3.81,8-.55.18-1.65.55-2.2.74-1.2-2.89-2.66-5.66-4.04-8.45Z" style="fill: #7e7e7e; stroke-width: 0px;"/>
    <path d="m430.48,178.7c.64.02,1.91.06,2.55.08.82,2.91,1.71,5.8,2.34,8.76-.62-.01-1.88-.04-2.5-.05-.65-2.97-1.57-5.87-2.39-8.79Z" style="fill: #7e7e7e; stroke-width: 0px;"/>
    <path d="m433.91,193.15c.67-.51,1.36-1,2.07-1.47.94,3.25,1.1,6.63,1.34,9.98-.63-.06-1.88-.19-2.51-.25-.07-2.78-.3-5.55-.9-8.26Z" style="fill: #7e7e7e; stroke-width: 0px;"/>
    <path d="m435,207c.61-.18,1.82-.53,2.43-.7-.12,3.04-.29,6.08-.48,9.12-.62.08-1.88.24-2.51.32.32-2.91.36-5.83.56-8.74Z" style="fill: #7e7e7e; stroke-width: 0px;"/>
    <path d="m433.92,219.93c.72.33,1.44.66,2.17.99-.72,2.86-1.44,5.71-2.14,8.57-.6-.01-1.81-.05-2.42-.07.72-3.18,1.53-6.34,2.39-9.49Z" style="fill: #7e7e7e; stroke-width: 0px;"/>
    <path d="m429.81,233.78c.59.09,1.78.28,2.37.37-.99,2.92-2.06,5.86-3.69,8.49-.48-.02-1.44-.07-1.92-.09.37-3.12,2.38-5.77,3.24-8.77Z" style="fill: #7e7e7e; stroke-width: 0px;"/>
    <path d="m401.73,270.39c1.65-.87,3.28-3.93,5.26-2.27.57,1.97-2.28,2.66-3.34,3.96-.48-.42-1.44-1.26-1.92-1.69Z" style="fill: #7e7e7e; stroke-width: 0px;"/>
    <path d="m332.66,281.92c2.88.8,5.78,1.52,8.73,2.05-.06.61-.18,1.84-.24,2.46-3.17-.66-6.35-1.37-9.45-2.33.32-.73.64-1.46.96-2.18Z" style="fill: #7e7e7e; stroke-width: 0px;"/>
    <path d="m345.91,284.91c1.76-.01,3.53,0,5.3.09.07.63.2,1.9.27,2.54-1.85-.14-3.7-.28-5.54-.43-.01-.55-.02-1.65-.03-2.2Z" style="fill: #7e7e7e; stroke-width: 0px;"/>
    <path d="m361.4,287.41c-1-3.33,6.07-3.69,4.66-.43-1.55.24-3.11.31-4.66.43Z" style="fill: #7e7e7e; stroke-width: 0px;"/>
  </g>
  <g id="_8c8c8bff" data-name="#8c8c8bff">
    <path d="m417.7,153.91c.35,0,1.06-.05,1.41-.07,1.83,2.19,3.48,4.55,5,6.98l-.44.97-1.29.45c-2-2.35-3.99-4.84-5.48-7.55l.8-.78Z" style="fill: #8c8c8b; stroke-width: 0px;"/>
  </g>
  <g id="_8a8a89ff" data-name="#8a8a89ff">
    <path d="m423.64,246.58c.53-.03,1.6-.08,2.13-.11-.13,2.71-2.26,4.71-3.59,6.91-.46,1.52-3.01,2.53-3.17.24,1.48-2.39,3.08-4.7,4.63-7.04Z" style="fill: #8a8a89; stroke-width: 0px;"/>
  </g>
  <g id="_8d8c8bff" data-name="#8d8c8bff">
    <path d="m415.74,257.44c.7.49,1.42,1,2.14,1.5-2.39,2.35-4.4,5.16-7.27,6.97-.84-.96-1.44-2.21-.07-3.01,1.76-1.79,3.55-3.56,5.2-5.46Z" style="fill: #8d8c8b; stroke-width: 0px;"/>
  </g>
  <g id="_898988ff" data-name="#898988ff">
    <path d="m388.53,277.88c1.93-.94,3.87-1.88,5.95-2.47.75,3.63-3.81,3.93-6.1,5.32.03-.72.11-2.14.15-2.85Z" style="fill: #898988; stroke-width: 0px;"/>
  </g>
  <g id="_91908fff" data-name="#91908fff">
    <path d="m373.57,282.89c1.59-.34,3.18-.7,4.77-1.1.02.71.08,2.13.1,2.83-1.3,0-2.6,0-3.89.01-.24-.43-.74-1.31-.98-1.74Z" style="fill: #91908f; stroke-width: 0px;"/>
  </g>
  <g id="Capa_1-2" data-name="Capa 1-2">
    <path d="m409.05,54.22c-.48,1.56-.66,3.18-.6,4.81-.42-.18-.78-.42-1.2-.6v-1.8c.3-1.02.72-2.04,1.2-3,.36.06.54.3.6.6Z" style="fill: #96a271; fill-rule: evenodd; stroke-width: 0px;"/>
    <path d="m403.04,60.22c.18,1.14.6,2.16,1.2,3,.18,1.14.66,2.16,1.5,3,.24-2.64.78-5.29,1.5-7.81.42.18.78.42,1.2.6.3,1.62.66,3.24,1.2,4.81.06-2.04.24-4.08.6-6.01.6,1.32.96,2.76,1.2,4.2.3,1.38.48,2.76.6,4.2-.42-.24-.72-.66-.9-1.2-.3.78-.42,1.56-.3,2.4h-1.8v-2.4c-1.38,1.14-3,1.92-4.81,2.4v1.8h-2.4c.12,1.02,0,2.04-.3,3-.12-1.26-.42-2.46-.9-3.6-.66,1.38-.78,2.76-.3,4.2.42.78.78.78,1.2,0,.18,1.62-.3,3.06-1.5,4.2l-.9-10.81c-.84,2.7-1.14,5.47-.9,8.41-.42-2.7-.78-5.53-1.2-8.41-.6,3.36-.78,6.79-.6,10.21h-1.8c.48-2.64.48-5.23,0-7.81-.6.3-1.08.66-1.5,1.2-2.28-1.8-3.96-1.26-5.11,1.5.72,1.08,1.44,1.02,2.1-.3.42.66.96.66,1.5,0,1.98,1.08,2.22,2.4.6,3.9.72.6.54.9-.6.9-1.92-.12-3.42-.9-4.5-2.4l-.6.6c.12-1.98.42-4.02.9-6.01-.84-8.59-1.56-8.59-2.1,0-.6-.54-1.14-1.14-1.5-1.8.54-2.16,1.14-4.32,1.8-6.61-1.02-1.92-2.46-3.66-4.2-5.11.18-.12.42-.18.6-.3,1.2,1.14,2.52,2.1,3.9,3,.72-1.26,1.14-2.7,1.2-4.2,1.38,3.6,3.12,7.03,5.11,10.21.6,1.56,1.38,2.94,2.4,4.2,1.26-2.52,2.4-5.11,3.3-7.81.18,1.02.42,1.98.6,3,.66-3.36,1.14-6.79,1.5-10.21.6,1.74,1.14,3.54,1.5,5.41.54-.72,1.02-.72,1.5,0-.72.9-.72,1.68,0,2.4Z" style="fill: #779d15; fill-rule: evenodd; stroke-width: 0px;"/>
    <path d="m106.92,101.67c1.62,1.26,2.22,2.88,1.8,4.81-.96-1.44-1.56-3.06-1.8-4.81Z" style="fill: #dbe1a8; fill-rule: evenodd; stroke-width: 0px;"/>
    <path d="m420.16,48.81c-.3,2.22-.42,4.38-.3,6.61.72,5.11.78,10.33.3,15.62-.66-1.14-1.2-2.34-1.5-3.6-.48-1.8-.9-3.6-1.2-5.41-.84-1.5-1.5-3.12-2.1-4.81-.72,4.38-1.32,8.77-1.8,13.21-.6-1.38-1.14-2.82-1.5-4.2-.42-.24-.72-.66-.9-1.2-.3.78-.42,1.56-.3,2.4h-1.8v-2.4c-1.38,1.14-3,1.92-4.81,2.4v1.8h-2.4c.12,1.02,0,2.04-.3,3-.12-1.26-.42-2.46-.9-3.6-.66,1.38-.78,2.76-.3,4.2.42.78.78.78,1.2,0,.18,1.62-.3,3.06-1.5,4.2-.84-.66-1.44-1.44-1.8-2.4-.42-2.7-.78-5.53-1.2-8.41-.6,3.36-.78,6.79-.6,10.21h-1.8c.48-2.64.48-5.23,0-7.81-.6.3-1.08.66-1.5,1.2-2.28-1.8-3.96-1.26-5.11,1.5.72,1.08,1.44,1.02,2.1-.3.42.66.96.66,1.5,0,1.98,1.08,2.22,2.4.6,3.9.72.6.54.9-.6.9-1.92-.12-3.42-.9-4.5-2.4l-.6.6c.12-1.98.42-4.02.9-6.01-.84-8.59-1.56-8.59-2.1,0-.6-.54-1.14-1.14-1.5-1.8-2.4-1.62-4.81-3.18-7.21-4.81-1.8-.9-3.6-1.62-5.41-2.1,3.9,2.58,7.69,5.29,11.41,8.11v.6c-1.38,1.56-2.82,3.18-4.2,4.81-3.84-9.61-4.44-9.43-1.8.6.06,1.56-.36,2.94-1.2,4.2-.42,1.08-1.02,2.1-1.8,3-2.82-5.71-4.32-11.71-4.5-18.02-.6,1.38-1.08,2.76-1.5,4.2-.36,2.16-1.02,4.14-2.1,6.01-.54-1.56-.96-3.18-1.2-4.81-.6,1.38-1.14,2.82-1.5,4.2.18,2.1-.12,4.08-.9,6.01-.54-2.58-.24-4.99.9-7.21.18-1.56,0-2.94-.6-4.2-.96,2.52-1.68,5.11-2.1,7.81-.12-.72-.42-1.32-.9-1.8.18-4.08-.36-8.11-1.5-12.01.12,3.78.24,7.57.3,11.41-1.08,9.37-2.16,9.37-3.3,0l-.6-.6c-.18.6-.42,1.2-.6,1.8-.84-1.26-1.32-2.7-1.5-4.2-.48-1.32-.96-2.76-1.5-4.2.12,5.23.12,10.39,0,15.62-1.56-2.7-3.48-5.11-5.71-7.21-.54-2.94-.54-5.77,0-8.41-.84,1.98-1.74,4.02-2.7,6.01-1.74-1.74-3.66-3.24-5.71-4.5-1.26-.36-1.5-.06-.6.9,4.14,2.7,5.65,6.55,4.5,11.41-1.56-1.68-2.94-3.48-4.2-5.41.72,3.06,1.8,6.07,3.3,9.01-.48.72-.96.72-1.5,0-2.28-2.34-4.2-4.99-5.71-7.81-.36.12-.54.42-.6.9.66,1.38,1.14,2.64,1.5,3.9-1.38-1.62-2.82-3.18-4.2-4.81-.18.6-.42,1.2-.6,1.8l-3.6-7.21c.06,1.44.24,2.82.6,4.2-.6-.72-1.32-1.32-2.1-1.8,2.52,4.63,4.93,9.31,7.21,14.12-.48.42-.9.3-1.2-.3-1.74-3.84-3.72-7.45-6.01-10.81-.24-1.08-.6-2.04-1.2-3,.3-.6.66-.6,1.2,0v-1.2c-.48-2.7-.78-5.47-.9-8.41-.9,1.98-1.56,3.96-2.1,6.01.42-.24.72-.66.9-1.2.18,2.58.42,5.23.6,7.81.12.72.42,1.32.9,1.8.12,2.22,0,4.38-.3,6.61-1.62-2.46-2.94-5.05-3.9-7.81.42-2.46,1.02-4.87,1.8-7.21-.96.96-1.68,2.16-2.1,3.6-.18-.48-.48-.9-.9-1.2-.6,1.98-.78,3.96-.6,6.01-.84,1.92-1.32,3.9-1.5,6.01-.78-1.38-1.8-2.58-3-3.6-.18-1.38-.42-2.82-.6-4.2l-1.2,1.2c-1.8-1.62-3.42-3.42-4.81-5.41,0,1.26.3,2.46.9,3.6.72.6,1.08,1.38,1.2,2.4-.66,1.2-.66,2.4,0,3.6-.3.18-.6.42-.9.6-.96-.48-1.86-1.08-2.7-1.8-.6-.78-.96-.54-1.2.6.12.66.3,1.26.6,1.8-.48.72-.96.72-1.5,0-.48-2.64-.96-5.23-1.5-7.81-.42,1.2-.78,2.4-1.2,3.6-.36-.06-.54-.3-.6-.6-.36-.06-.66-.24-.9-.6-1.02,1.02-1.5,2.22-1.5,3.6-1.26,0-2.34.36-3.3,1.2-4.2-.96-4.38-.36-.6,1.8.3.54.36,1.14.3,1.8h-1.8c.06-.36.24-.66.6-.9-2.28.06-3.48-1.08-3.6-3.3-.42-3-.78-6.01-1.2-9.01-.24,2.34-.84,4.56-1.8,6.61.24,1.32-.18,2.28-1.2,3-1.44-1.08-3.06-1.56-4.81-1.5,2.34,1.92,2.34,3.96,0,6.01-.54.36-1.08.3-1.5-.3-1.44-5.47-.72-10.69,2.1-15.62-.3-.6-.66-.6-1.2,0-1.5,2.94-2.88,5.95-4.2,9.01-.6.78-1.32.78-2.1,0-.24-1.44-.24-2.82,0-4.2-.6.66-1.02,1.5-1.2,2.4-.66.42-1.32.72-2.1.9.66.84.72,1.74.3,2.7-.84,1.86-1.74,3.66-2.7,5.41-.12.84-.42,1.68-.9,2.4-.78-1.5-1.08-3.12-.9-4.81v-24.63c-.42,1.02-.78,1.98-1.2,3-.42,3-.78,6.01-1.2,9.01-.66,3.48-1.44,6.91-2.4,10.21-.18,2.76-.9,5.35-2.1,7.81-1.26-3.12-2.58-6.25-3.9-9.31.84-1.02,1.38-2.1,1.5-3.3-.66,1.14-1.44,1.32-2.4.6-.12.96-.42,1.74-.9,2.4-.78,1.2-1.62,2.4-2.4,3.6v1.2c-.66-.06-1.26-.24-1.8-.6-1.98-2.28-4.08-4.5-6.31-6.61,1.08,2.4,2.34,4.81,3.9,7.21-2.1,1.38-4.32,2.58-6.61,3.6-1.8-3-3.3-6.19-4.5-9.61.36,2.58.66,5.17.9,7.81-.12.84-.42,1.68-.9,2.4-.24-.9-.78-1.2-1.5-.9.78,1.5.78,3,0,4.5-.54.3-1.14.48-1.8.6-3.12-2.28-6.13-4.69-9.01-7.21-.54-.48-1.14-.6-1.8-.3,2.1,1.98,4.08,4.08,6.01,6.31-.78.9-1.38,1.92-1.8,3-.36.18-.78.36-1.2.6-.42-2.22-.78-4.38-1.2-6.61-.24,2.88-.42,5.89-.6,9.01-.42.18-.78.42-1.2.6-2.64-2.4-3.06-5.11-1.2-8.11-.9-.36-1.5-.06-1.8.9-.06.3-.24.54-.6.6-.48-1.38-.78-2.76-.9-4.2l-.6.6c-.24-.72-.66-1.32-1.2-1.8.42,3.96-.54,7.57-3,10.81-.12-1.14-.42-2.1-.9-3-5.11,9.07-5.95,8.77-2.4-.9-.06-.48-.24-.78-.6-.9-1.08,3.36-2.76,6.37-5.11,9.01-3.18-5.29-2.28-9.97,2.7-14.12-.12-.24-.36-.36-.6-.3-2.52,1.14-4.69,2.76-6.61,4.81-.72-1.02-1.38-1.98-2.1-3,.18,1.5.66,2.94,1.5,4.2-.24.6-.66.72-1.2.3-.78-.84-1.5-1.74-2.1-2.7-.12.78,0,1.62.3,2.4.48.66.9,1.5,1.2,2.4-1.62,2.4-3.18,4.81-4.81,7.21-1.08-2.52-1.86-5.11-2.4-7.81v-4.2c-.18-1.44-.48-2.82-.9-4.2-.9,3.18-1.62,6.37-2.1,9.61-.12,1.62-.42,3.24-.9,4.81-1.2-2.1-2.52-4.08-3.9-6.01-1.38-2.94-2.64-5.95-3.9-9.01.12,1.8.42,3.6.9,5.41.72,1.86,1.5,3.66,2.4,5.41.36,2.88.96,5.65,1.8,8.41-.18.6-.42,1.2-.6,1.8-.84-1.26-1.62-2.46-2.4-3.6-.6-1.98-1.5-3.78-2.7-5.41-.18,1.38-.42,2.82-.6,4.2-1.08-1.8-2.22-3.6-3.3-5.41.12-.72-.06-1.32-.6-1.8-.18.3-.42.6-.6.9,1.26,2.88,1.5,5.83.6,8.71-2.82-4.02-4.81-8.41-6.01-13.21-.06,5.59-1.08,5.95-3,1.2-.36.36-.6.84-.6,1.5.96,2.7,1.56,5.53,1.8,8.41,0,1.2-.18,2.34-.6,3.3h-.6c-.36-4.26-1.56-8.29-3.6-12.01-.24-1.08-.66-2.1-1.2-3-.36.12-.54.42-.6.9.72,1.62,1.14,3.36,1.2,5.11.06,1.98-.36,3.78-1.2,5.41,0,.78-.42,1.2-1.2,1.2-2.4-4.02-4.81-8.05-7.21-12.01-.48-.54-.96-1.14-1.5-1.8,1.2,3.42,2.58,6.79,4.2,10.21.42.78.42,1.62,0,2.4-.18-.54-.48-.96-.9-1.2-2.22-4.38-4.69-8.59-7.51-12.61-.12,1.2,0,2.4.3,3.6.66,2.1.78,4.26.3,6.61-.66-.72-1.14-1.5-1.5-2.4l-1.2-1.2c-.42-1.2-1.08-2.22-2.1-3,.48,2.46.96,4.93,1.5,7.51-.06.78-.3,1.44-.6,2.1v.6h-3c-.96-2.28-1.38-4.69-1.2-7.21v-3c.18-.9-.06-1.68-.6-2.4-.6.9-.78,1.92-.6,3v2.4c-.42,2.58-.6,5.17-.6,7.81h-3.6c-.9,0-1.62-.42-2.1-1.2-.48-1.26-1.02-2.46-1.5-3.6-1.32-.36-2.34-1.14-3-2.4,1.74-3.9,4.32-7.09,7.81-9.61.9-.96.66-1.26-.6-.9-3.12,2.94-6.01,6.01-8.71,9.31-.84-1.5-1.86-2.88-3-4.2-.84,2.1-1.14,4.26-.9,6.61.06,2.28-.6,4.26-2.1,6.01-1.62-1.8-3.42-3.42-5.41-4.81.78,2.04,1.68,4.14,2.7,6.31-.18.3-.42.6-.6.9-1.14-1.32-2.16-2.76-3-4.2-.72-2.82-1.5-5.65-2.4-8.41-.42,1.98-.78,4.02-1.2,6.01-4.32-2.52-4.63-2.1-.9,1.2.3,2.4.42,4.81.3,7.21.06.24-.06.48-.3.6-2.46-3.9-4.75-7.93-6.91-12.01-.36.12-.54.42-.6.9,1.44,3.6,2.1,7.33,2.1,11.11-1.62-2.22-3.06-4.63-4.2-7.21.42,3.18,1.02,6.43,1.8,9.61.48,1.86.42,3.66-.3,5.41-1.68-3.96-3.42-7.99-5.11-12.01.12,5.41-.78,5.59-2.7.6-.18-.78-.42-1.62-.6-2.4-.96-2.16-1.86-4.38-2.7-6.61-.3.54-.36,1.14-.3,1.8.84,3,1.68,6.01,2.4,9.01.66,4.87,1.44,9.67,2.4,14.42v.6c10.27-7.33,21.44-12.73,33.64-16.22,3.9-.78,7.81-.78,11.71,0,.72-.12,1.38-.18,2.1-.3-.72-.24-1.32-.66-1.8-1.2,6.37-.72,12.55-.24,18.62,1.5.72,1.38,1.74,1.56,3,.6,2.64.84,5.23,1.62,7.81,2.4,3.78,1.5,7.21,3.6,10.21,6.31,1.98.12,4.02,0,6.01-.3,6.79-.78,13.63-1.62,20.42-2.4-.06,1.62.54,2.04,1.8,1.2.54-.72.78-1.5.6-2.4,2.58-.24,5.23-.54,7.81-.9.36-.24.54-.54.6-.9,12.31-2.04,24.51-4.02,36.64-6.01,7.57-.48,14.96-1.5,22.22-3,6.25-.66,12.43-1.44,18.62-2.4,5.35-1.02,10.75-1.62,16.22-1.8,1.02-.42,1.98-.78,3-1.2,9.01-1.26,18.02-2.46,27.03-3.6h.6c7.27-1.62,14.66-2.58,22.22-3,7.15-1.26,14.36-2.46,21.62-3.6,3.12-.12,6.13-.54,9.01-1.2h4.2c10.45-2.04,21.08-3.6,31.83-4.81.78.12,1.38-.06,1.8-.6-2.52-8.95-4.81-17.96-6.91-27.03ZM123.13,102.87c-.9-1.32-1.5-2.82-1.8-4.5.18-.3.42-.6.6-.9,1.32,1.44,2.34,3.06,3,4.81-.42.54-1.02.72-1.8.6Zm71.48-.6c1.08-1.56,2.28-2.94,3.6-4.2-.24,1.92-.9,3.72-2.1,5.41-1.32,1.5-1.8,1.08-1.5-1.2Zm2.1,4.81c-.24-.12-.36-.36-.3-.6.3-1.5.9-2.94,1.8-4.2.78,1.86.3,3.48-1.5,4.81Zm11.11-3.6c-.66.66-1.14,1.44-1.5,2.4-.06-1.98.54-3.78,1.8-5.41.42-.72.72-.72.9,0-.54.9-.96,1.92-1.2,3Zm7.21-5.41c-.78,1.8-1.8,3.36-3,4.81.66-2.58,1.26-5.17,1.8-7.81l.6-.6c.6,1.14.78,2.34.6,3.6Zm3.6,1.8c-.48-.42-.9-1.2-1.2-2.4-.06-.42,0-.84.3-1.2.78,1.08,1.08,2.28.9,3.6Zm9.01-4.2c-1.74,1.8-2.52,1.38-2.4-1.2.6-.78,1.38-1.2,2.4-1.2v2.4Zm16.22-3c-1.14.18-1.92-.24-2.4-1.2.42-1.02,1.2-1.38,2.4-1.2v2.4Zm2.4-4.2c-.72.66-1.62,1.02-2.7,1.2-1.2.12-2.1-.3-2.7-1.2,1.08-1.92,2.7-3.12,4.81-3.6,1.02,1.14,1.2,2.34.6,3.6Zm136.35-10.81c-.54.9-1.02,1.92-1.5,3-2.88-4.5-2.16-8.53,2.1-12.01-.18,3-.36,6.01-.6,9.01Z" style="fill: #779d15; fill-rule: evenodd; stroke-width: 0px;"/>
    <path d="m521.37,288.47h-1.2c-1.44-.42-2.34-1.44-2.7-3-.18.6-.42,1.2-.6,1.8l-5.41-18.02c.84,6.19,1.74,12.37,2.7,18.62-.42,0-.6.18-.6.6-4.02-12.97-7.57-26.19-10.51-39.64-.54-.36-1.14-.54-1.8-.6-7.81,2.04-15.5,4.38-23.13,6.91-.9.72-1.62,1.62-2.1,2.7-3.78,8.83-7.63,17.6-11.41,26.43.84-4.93,2.04-9.73,3.6-14.42-2.88,6.19-5.83,12.43-8.71,18.62-.42-.3-.72-.72-.9-1.2-1.02,1.62-2.22,3-3.6,4.2-.18-3.96.54-7.75,2.1-11.41.78-1.26,1.08-2.64.9-4.2-.48,1.02-1.02,2.04-1.5,3-2.52,5.41-4.99,10.81-7.51,16.22-.6.72-.9.54-.9-.6,4.14-12.55,8.47-24.99,12.91-37.24-1.08.66-1.56.24-1.5-1.2-1.02.12-2.04,0-3-.3l1.2-1.2c-3-.9-6.01-1.08-9.01-.6.78-.6,1.62-1.2,2.4-1.8-.78-.42-.78-.78,0-1.2,1.8-.48,3.6-.9,5.41-1.2-.78-.42-.78-.78,0-1.2,3.54-1.02,6.91-2.28,10.21-3.9,7.39-17.84,14.3-35.86,20.72-54.06.9-1.68,1.98-3.18,3.3-4.5,4.2-1.38,8.41-2.82,12.61-4.2.84-.48,1.68-.36,2.4.3,3.06,15.74,6.07,31.41,9.01,47.15,4.56-.6,9.07-1.68,13.51-3.3.3.12.6.18.9.3-3.18,1.38-6.37,2.76-9.61,4.2,6.01-1.2,12.01-2.7,18.02-4.5.6.12,1.2.18,1.8.3-.48.6-.72,1.32-.6,2.1-1.08,0-2.1.3-3,.9,1.44.12,2.82.42,4.2.9-.48.78-1.08,1.5-1.8,2.1-4.26,1.14-8.47,2.58-12.61,4.2,3.84-.06,7.69-.48,11.41-1.2-6.25,2.7-12.67,5.05-19.22,6.91,1.62,8.59,3.18,17.18,4.81,25.83-.12,1.02-.18,1.98-.3,3-.9-2.82-1.86-5.65-3-8.41.96,6.37,2.1,12.79,3.3,19.22-.18.6-.42,1.2-.6,1.8-.66-.72-1.14-1.5-1.5-2.4.18,2.4.48,4.81.9,7.21Z" style="fill: #ffc200; fill-rule: evenodd; stroke-width: 0px;"/>
    <g>
      <path d="m283.51,138.31c-.84-.6-1.86-1.02-3-1.2,1.5,1.98,2.46,4.14,3,6.61,2.1,4.02,2.88,8.23,2.4,12.61-3.36-1.5-6.79-3-10.21-4.5-3.72-1.2-7.51-1.86-11.41-2.1-7.39-1.56-14.84-1.56-22.22,0-1.26,0-2.46.24-3.6.6-3.78,1.08-7.57,2.1-11.41,3-2.16-.48-3.36-1.86-3.6-4.2-2.46-4.38-3.48-9.13-3-14.12,1.32-.66,2.76-1.2,4.2-1.5v-.6c1.44.06,2.82-.18,4.2-.6,10.87-3.66,22.04-4.99,33.64-3.9,1.98.12,3.78.6,5.41,1.5,4.93-.36,8.71,1.44,11.41,5.41-.24-1.68-1.08-3.06-2.4-4.2.48-.54,1.08-.72,1.8-.6-1.08-.66-2.28-1.14-3.6-1.5-16.4-4.02-32.62-3.54-48.65,1.5-.78.42-1.62.78-2.4,1.2-1.62.96-3,.78-4.2-.6-.66-3.96-.78-7.99-.3-12.01,2.16-1.68,4.44-3.06,6.91-4.2-1.8-1.08-3.6-1.26-5.41-.6.24-.06.48.06.6.3-2.4,1.32-4.02,3.18-4.81,5.71v.6c-.18,4.5,0,8.95.6,13.21.78,6.07,2.34,11.83,4.81,17.42.42.78.78,1.62,1.2,2.4.54,1.38,1.32,2.58,2.4,3.6,2.22,2.34,2.28,4.75.3,7.21-4.02,3.36-8.17,6.67-12.31,9.91-1.38.42-2.82.42-4.2,0-9.61-12.07-13.39-25.77-11.41-41.14-1.74.36-2.94,1.32-3.6,3,.42,7.03,1.56,14.06,3.3,21.02,2.82,7.33,6.31,14.24,10.51,20.72-2.94,3.78-6.73,5.77-11.41,6.01-5.05-4.75-8.23-10.45-9.61-17.12.42,3.24.48,6.31.18,9.31.06-.12.06-.18.12-.3,5.65,6.85,10.03,14.48,13.21,22.82,1.02,1.5,2.1,2.94,3.3,4.2.18.42.42.78.6,1.2-.48.66-1.08.72-1.8.3-6.19-5.71-10.81-12.37-13.82-20.12-.06,1.02-.48,1.92-1.2,2.7.36.84.6,1.74.6,2.7,2.58,0,3.42,1.2,2.4,3.6.66.66,1.2.48,1.5-.6.3,1.2.42,2.4.3,3.6h-1.8c0-1.8-.24-1.98-.6-.6.54,1.14.54,2.34,0,3.6h-2.4c.54,2.94,1.74,3.12,3.6.6-.84-.84-.72-1.44.3-1.8.96.48,1.02,1.2.3,2.1.06.66.36,1.14.9,1.5.54-.78,1.08-1.56,1.5-2.4,1.26,3.42,3.66,5.65,7.21,6.61-3.3,1.14-5.59.12-6.91-3-1.08,1.32-1.02,2.64.3,3.9-.3.6-.72,1.08-1.2,1.5,2.1-.42,4.32-.42,6.61,0,1.38-.78,2.82-1.62,4.2-2.4.42.18.78.42,1.2.6-.72.54-1.5.78-2.4.6.24,3.84,2.28,5.89,6.01,6.01v1.8c-1.08-.18-2.1,0-3,.6.78,1.02.6,1.86-.6,2.4.78.18,1.62.42,2.4.6,1.2.12,2.4,0,3.6-.3-2.04-3.48-1.02-4.63,3-3.3-.42.6-.78,1.2-1.2,1.8l.6.6c.84-.72,1.74-1.32,2.7-1.8,1.08.54.96,1.08-.3,1.5,1.62.12,3.18,0,4.81-.3-5.23-1.92-10.03-4.63-14.42-8.11,2.7-.84,5.29-1.74,7.81-2.7h0c3.78-1.08,7.39-2.58,10.81-4.5,14.9-9.13,28.65-19.82,41.14-32.14.3.36.36.78.3,1.2h0c.36,7.33-.96,14.36-3.9,21.02-6.01,9.01-13.69,16.1-23.13,21.32-5.41,3.48-11.17,4.81-17.42,3.9.06.36.24.66.6.9,2.4.18,4.81.42,7.21.6l1.2,1.2c7.03.54,14.06.36,21.02-.6,1.56-.48,1.56-.78,0-.9-1.56.36-3.18.54-4.81.6-4.69.72-9.49.78-14.42.3.3-.42.72-.72,1.2-.9,5.95-2.16,11.95-2.34,18.02-.6,2.1-.48,4.26-.78,6.61-.9,1.62-.24,2.82-.9,3.6-2.1-5.89,2.52-11.59,2.16-17.12-1.2-.42-.78-.3-1.5.3-2.1,4.08-2.58,7.87-5.47,11.41-8.71.48-.78,1.08-1.5,1.8-2.1,2.34-.48,4.5-.36,6.61.3,3.36.6,6.79,1.02,10.21,1.2.6-1.68,1.8-2.52,3.6-2.4.9-3.78,2.1-7.39,3.6-10.81,1.86-6.49,3.3-13.09,4.2-19.82v-3.6c1.2-9.31-.18-18.32-4.2-27.03h0Zm-66.07-10.21v-1.8,1.8Zm.06-3.24c.06-.84.06-1.44.12-1.8-.06.42-.12,1.02-.12,1.8Zm.18-1.98c.06-.24.12-.24.18,0-.12-.24-.18-.24-.18,0Zm.24.24c.06.36.18.96.24,1.8-.12-.84-.18-1.44-.24-1.8Zm.42,3.18c.06.54.12,1.14.18,1.8-.12-.66-.18-1.26-.18-1.8Zm41.69,23.91c.06,0,.18-.06.36-.06-.18,0-.3.06-.36.06-.18.06-.24.12-.24.18,0-.06.06-.12.24-.18Zm-29.97,4.63c1.2-.3,2.4-.42,3.6-.3.06,2.52-1.14,3.9-3.6,4.2.06-.9-.36-1.5-1.2-1.8,0-.9.42-1.62,1.2-2.1Zm35.74,12.31c-12.31,11.83-26.01,21.62-41.14,29.43-4.93,3.18-10.33,5.17-16.22,6.01-3.24-2.94-5.95-6.37-8.11-10.21-1.92-3.48-1.02-5.65,2.7-6.61,9.67-6.07,18.5-13.27,26.43-21.62,3.48-3.6,6.91-7.27,10.21-11.11,1.44-1.02,3.06-1.5,4.81-1.5,6.43-.18,12.85.06,19.22.6,1.92.84,3.42,2.22,4.5,4.2.96,4.08.18,7.69-2.4,10.81Zm16.52,18.62v.6c-.96,4.56-2.76,8.77-5.41,12.61-3.96.9-7.75.42-11.41-1.5-.66-.42-1.02-1.02-1.2-1.8,2.04-4.99,3.6-10.09,4.81-15.32.54-2.4,1.02-4.81,1.5-7.21.12-6.01.18-12.01.3-18.02,8.83-1.68,13.45,1.92,13.82,10.81.54,6.85-.24,13.45-2.4,19.82Zm3-15.02c.06-.42.06-.84.06-1.26,0,.36,0,.84-.06,1.26Z" style="fill: #292e1b; fill-rule: evenodd; stroke-width: 0px;"/>
      <path d="m187.4,177.95c.06-.48.12-1.02.18-1.5-.18.42-.24.96-.18,1.5Z" style="fill: #292e1b; fill-rule: evenodd; stroke-width: 0px;"/>
    </g>
    <path d="m207.23,220.9c-1.86-.66-3.66-1.5-5.41-2.4,1.68,0,3.42.3,5.11.9.66,0,1.14-.24,1.5-.6-.78-.18-1.62-.42-2.4-.6-10.69-3.9-21.14-8.53-31.23-13.82,4.63-7.21,7.93-15.02,9.91-23.43-.06-11.23-.06-22.4,0-33.64-.9-4.56-2.16-8.95-3.9-13.21-4.93-8.83-11.95-15.56-21.02-20.12-16.1-5.83-31.95-5.05-47.45,2.4-30.03,15.32-45.35,39.82-45.95,73.58.66,13.39,5.89,24.57,15.62,33.64-.6-1.62-1.2-3.18-1.8-4.81,4.99,6.25,11.05,10.93,18.32,14.12-1.74.42-3.42.3-5.11-.3-.3.12-.6.18-.9.3,6.91,3.84,14.3,5.35,22.22,4.5,17.12-.78,32.44-6.43,45.95-16.82,4.26,1.62,8.59,3.12,12.91,4.5,8.77,3.3,17.54,3.54,26.43.6l1.2-1.2c-1.02-1.08-2.22-1.92-3.6-2.4,1.92-.24,3.72.18,5.41,1.2,1.38.42,2.82.42,4.2,0,1.5-.72,1.5-1.5,0-2.4Z" style="fill: #ffc200; fill-rule: evenodd; stroke-width: 0px;"/>
    <g>
      <path d="m233.65,154.53c-1.2-.12-2.4,0-3.6.3-.78.48-1.2,1.2-1.2,2.1.84.3,1.26.9,1.2,1.8,2.46-.3,3.66-1.68,3.6-4.2Z" style="fill: #fff; fill-rule: evenodd; stroke-width: 0px;"/>
      <path d="m283.51,143.71c-.54-2.46-1.5-4.63-3-6.61-.42-.6-.78-1.2-1.2-1.8-2.7-3.96-6.49-5.77-11.41-5.41-1.62-.9-3.42-1.38-5.41-1.5-11.59-1.08-22.76.24-33.64,3.9-1.38.42-2.76.66-4.2.6v.6c-1.44.3-2.88.84-4.2,1.5-.48,4.99.54,9.73,3,14.12.24,2.34,1.44,3.72,3.6,4.2,3.84-.9,7.63-1.92,11.41-3,1.14-.36,2.34-.6,3.6-.6,7.39-1.56,14.84-1.56,22.22,0,3.9.24,7.69.9,11.41,2.1,3.42,1.5,6.85,3,10.21,4.5.48-4.38-.3-8.59-2.4-12.61h0Zm-62.47-8.41c.36-.06.66-.06,1.02,0-.36-.06-.66-.06-1.02,0Z" style="fill: #fff; fill-rule: evenodd; stroke-width: 0px;"/>
      <path d="m219.84,131.1c1.2,1.38,2.58,1.56,4.2.6.78-.42,1.62-.78,2.4-1.2,16.04-5.05,32.26-5.53,48.65-1.5,1.32.36,2.52.84,3.6,1.5.66.06,1.26,0,1.8-.3-2.1-2.22-4.32-4.32-6.61-6.31-14.24-10.69-30.03-13.69-47.45-9.01-2.46,1.14-4.75,2.52-6.91,4.2-.48,4.02-.36,8.05.3,12.01Z" style="fill: #fff; fill-rule: evenodd; stroke-width: 0px;"/>
      <path d="m213.83,174.65c4.14-3.24,8.29-6.55,12.31-9.91,1.98-2.46,1.92-4.87-.3-7.21-1.08-1.02-1.86-2.22-2.4-3.6-.42-.78-.78-1.62-1.2-2.4-2.46-5.59-4.02-11.35-4.81-17.42-.6-4.26-.78-8.71-.6-13.21v-.6c.78-2.52,2.4-4.38,4.81-5.71-.12-.24-.36-.36-.6-.3-8.05,1.86-14.42,6.07-19.22,12.61-1.74,1.92-2.94,4.14-3.6,6.61-1.98,15.38,1.8,29.07,11.41,41.14,1.38.42,2.82.42,4.2,0Z" style="fill: #fff; fill-rule: evenodd; stroke-width: 0px;"/>
      <path d="m187.4,167.14c1.38,6.67,4.56,12.37,9.61,17.12,4.69-.24,8.47-2.22,11.41-6.01-4.2-6.49-7.69-13.39-10.51-20.72-1.74-6.97-2.88-14-3.3-21.02-1.8,3.36-3.36,6.73-4.81,10.21-2.82,5.59-3.6,11.35-2.4,17.42v3Zm14.06,14.96c-.12.18-.18.36-.18.6,0-.24.06-.42.18-.6.18-.36.48-.66.96-.84h0c-.48.18-.78.48-.96.84Zm1.8-2.88c-.18.54-.66,1.02-1.44,1.38h0c.78-.36,1.26-.78,1.44-1.38Zm-3.84-6.07c.3-.18.6-.42.84-.6.54-.42,1.08-.96,1.5-1.5.24-.3.42-.54.6-.84h0c-.18.3-.42.6-.6.84-.42.54-.96,1.08-1.5,1.5-.24.18-.54.42-.84.6-.06.12-.12.3-.18.42.06-.12.12-.3.18-.42Zm-.36.84c-.18.6-.3,1.2-.3,1.8,0-.6.12-1.2.3-1.8Zm-3.24-13.45h0c-.06.24-.18.42-.3.6.12-.18.24-.42.3-.6Zm1.2,22.22c1.32.6,2.76.78,4.2.6h0c-1.44.18-2.88,0-4.2-.6-1.8-1.32-3.3-2.88-4.5-4.81-.06-.12-.06-.18-.12-.3.06.12.06.18.12.3,1.2,1.92,2.7,3.48,4.5,4.81Zm-4.56-7.57c.12.12.24.18.36.36h0l-.36-.36Zm.66-19.46c.18-.96.36-1.92.48-2.94-.12.96-.3,1.98-.48,2.94-.6.96-1.08,1.92-1.44,2.94.36-1.02.84-1.98,1.44-2.94Zm-5.71,5.65v1.56c.36.06.66.24.9.6.18,1.8.42,3.6.6,5.41,1.14,1.86,1.86,3.84,2.1,6.01.36-.06.72-.06,1.02.06-.3-.12-.6-.12-1.02-.06-.24-2.16-.96-4.14-2.1-6.01-.18-1.8-.42-3.6-.6-5.41-.24-.36-.54-.54-.9-.6v-1.56Z" style="fill: #fff; fill-rule: evenodd; stroke-width: 0px;"/>
      <path d="m270.9,155.13c-.12,6.01-.18,12.01-.3,18.02-.48,2.4-.96,4.81-1.5,7.21-1.2,5.23-2.76,10.33-4.81,15.32.18.78.54,1.38,1.2,1.8,3.66,1.92,7.45,2.4,11.41,1.5,2.64-3.84,4.44-8.05,5.41-12.61v-.6c2.16-6.37,2.94-12.97,2.4-19.82-.36-8.89-4.99-12.49-13.82-10.81Z" style="fill: #fff; fill-rule: evenodd; stroke-width: 0px;"/>
      <path d="m200.92,198.97c-3.18-8.35-7.57-15.98-13.21-22.82-.3.54-.36,1.14-.3,1.8.54,2.16,1.14,4.38,1.8,6.61,3,7.75,7.63,14.42,13.82,20.12.72.42,1.32.36,1.8-.3-.18-.42-.42-.78-.6-1.2-1.2-1.26-2.28-2.7-3.3-4.2Z" style="fill: #fff; fill-rule: evenodd; stroke-width: 0px;"/>
      <path d="m293.72,165.64c.18-9.31-2.34-17.84-7.51-25.53-.66-.96-1.56-1.56-2.7-1.8,4.02,8.71,5.41,17.72,4.2,27.03v3.6c-.9,6.73-2.34,13.33-4.2,19.82-.06.54-.12,1.08-.18,1.62.06-.54.12-1.08.18-1.62-1.5,3.42-2.7,7.03-3.6,10.81,1.38-1.02,2.58-2.22,3.6-3.6h0c7.51-8.65,10.87-18.74,10.21-30.33Z" style="fill: #fff; fill-rule: evenodd; stroke-width: 0px;"/>
      <path d="m200.32,192.37c2.16,3.84,4.87,7.27,8.11,10.21,5.89-.84,11.29-2.82,16.22-6.01h0c15.14-7.81,28.83-17.6,41.14-29.43,2.58-3.12,3.36-6.73,2.4-10.81-1.08-1.98-2.58-3.36-4.5-4.2-6.37-.54-12.79-.78-19.22-.6-1.74,0-3.36.48-4.81,1.5-3.3,3.84-6.73,7.51-10.21,11.11-7.93,8.35-16.76,15.56-26.43,21.62-.18.18-.36.42-.54.66-.3.42-.6.9-.9,1.32-.12.24-.24.48-.36.72h0c.12-.24.24-.48.36-.72.3-.48.6-.9.9-1.32.18-.24.36-.42.54-.66-3.72.96-4.63,3.12-2.7,6.61Zm17.12,5.11l.6.6h0l-.6-.6h0Zm-5.41,3.6h0c-.48-.36-.66-.66-.6-.9-.06.24.18.54.6.9Zm-2.4-1.2h0c-.6.18-1.2.42-1.8.6h0c.6-.18,1.2-.42,1.8-.6Z" style="fill: #fff; fill-rule: evenodd; stroke-width: 0px;"/>
      <path d="m263.39,191.77c2.94-6.67,4.26-13.69,3.9-21.02.06-.42,0-.84-.3-1.2-12.49,12.31-26.25,23.01-41.14,32.14-3.42,1.92-7.03,3.42-10.81,4.5-2.52.96-5.11,1.86-7.81,2.7,4.38,3.48,9.19,6.19,14.42,8.11h1.2c6.25.9,12.01-.42,17.42-3.9,9.43-5.23,17.12-12.31,23.13-21.32Z" style="fill: #fff; fill-rule: evenodd; stroke-width: 0px;"/>
      <path d="m276.3,201.98c-3.42-.18-6.85-.6-10.21-1.2-2.1-.66-4.26-.78-6.61-.3-.72.6-1.32,1.32-1.8,2.1-3.54,3.24-7.33,6.13-11.41,8.71-.6.6-.72,1.32-.3,2.1,5.53,3.36,11.23,3.72,17.12,1.2,5.77-2.58,10.75-6.19,15.02-10.81.6-.18.96-.6,1.2-1.2-.9-.6-1.92-.78-3-.6Z" style="fill: #fff; fill-rule: evenodd; stroke-width: 0px;"/>
      <path d="m234.86,218.2c-.48.18-.9.48-1.2.9,4.93.48,9.73.42,14.42-.3,1.62-.06,3.24-.24,4.81-.6v-.6c-6.07-1.74-12.07-1.56-18.02.6Z" style="fill: #fff; fill-rule: evenodd; stroke-width: 0px;"/>
    </g>
    <path d="m147.46,316.1c-5.95,6.55-12.43,12.43-19.52,17.72-.78.6-1.56.78-2.4.6,3.48-2.88,6.79-6.01,9.91-9.31,3.78-4.26,7.51-8.53,11.11-12.91-1.26-.6-1.44-1.38-.6-2.4-.42-.42-.78-.42-1.2,0-5.11,4.69-10.21,9.43-15.32,14.12-.42-.42-.42-.78,0-1.2,5.17-5.17,9.85-10.63,14.12-16.52-4.69,3.48-9.07,7.45-13.21,12.01-9.01,7.99-18.8,14.78-29.43,20.42-5.05,1.92-10.27,2.52-15.62,1.8-4.56-2.76-6.85-6.91-6.91-12.31-.6-8.89,1.2-17.3,5.41-25.23,8.89-15.92,21.2-28.41,36.94-37.54,1.86-1.2,3.84-1.92,6.01-2.1v3c.06,3.72-.36,7.33-1.2,10.81,0,3.06.48,3.06,1.5,0-.12,2.58-.42,5.23-.9,7.81.12,1.62.42,3.24.9,4.81.6-1.38,1.2-2.82,1.8-4.2.18,1.38.42,2.82.6,4.2.54-.48.96-1.08,1.2-1.8.42.78.78.78,1.2,0,1.2-3.36,2.16-6.73,3-10.21.6-.72.9-.54.9.6-.06.54-.24,1.08-.6,1.5.6.36.96.18,1.2-.6,4.2-11.29,6.97-22.88,8.41-34.84-.12-1.08-.18-2.22-.3-3.3-1.38-1.2-2.88-1.98-4.5-2.4-4.63.06-9.01,1.08-13.21,3-.12,3.36-.24,6.79-.3,10.21-4.87-1.5-9.73-1.62-14.72-.3-11.71,4.5-21.62,11.65-29.73,21.32-9.67,11.71-16.46,24.93-20.42,39.64-1.08,7.27-1.14,14.6-.3,21.92,2.34,14.06,10.69,20.96,24.93,20.72,9.67-.36,18.74-2.76,27.33-7.21,1.8-1.14,3.6-2.34,5.41-3.6-.12-.18-.18-.42-.3-.6-1.08.66-2.16,1.26-3.3,1.8-.72-.18-.72-.48,0-.9,11.77-7.15,22.28-15.86,31.53-26.13.6-.78.78-1.56.6-2.4Z" style="fill: #ffc200; fill-rule: evenodd; stroke-width: 0px;"/>
    <path d="m188.61,266.25c.72.3,1.14.9,1.2,1.8.96,6.91,2.34,13.69,4.2,20.42-5.29,1.26-10.51,2.82-15.62,4.81l-.6-.6c3.96-8.71,7.57-17.48,10.81-26.43Z" style="fill: #272d24; fill-rule: evenodd; stroke-width: 0px;"/>
    <path d="m126.74,266.25c.06,3.72-.36,7.33-1.2,10.81,0-3.72.42-7.33,1.2-10.81Z" style="fill: #a8aba6; fill-rule: evenodd; stroke-width: 0px;"/>
    <path d="m333.06,156.33c-.36-.54-.3-1.08.3-1.5,3.18-1.2,6.19-2.7,9.01-4.5l7.81-4.75c-.24.24,3.96-3.06,5.41-4.26,7.15-4.02,13.03-9.43,17.72-16.22,3.3-5.71,3.48-11.53.6-17.42-4.56-3.24-9.67-4.93-15.32-5.11-9.67-.54-19.28-.24-28.83.9.12-1.98-.78-3.18-2.7-3.6-4.26.18-8.41,1.08-12.31,2.7-1.56,1.62-2.94,3.36-4.2,5.11-6.07,1.38-12.07,3.12-18.02,5.11-.36.84-.54,1.74-.6,2.7.84,4.38,1.26,8.77,1.2,13.21,5.23-1.26,10.45-2.64,15.62-4.2-1.86,9.73-3.48,19.58-4.81,29.43-2.04.36-3.96,1.2-5.71,2.4-.3,1.38-.42,2.76-.3,4.2,1.44-.24,1.86.18,1.2,1.2.9,1.62,1.68,3.36,2.4,5.11-2.76,12.19-3.66,24.51-2.7,36.94.54-1.62,1.08-3.18,1.5-4.81.24-1.02.54-1.98.9-3,.48,1.32.36,2.52-.3,3.6-.78,3.78-1.26,7.63-1.5,11.41.9-1.5,1.56-3.12,2.1-4.81.42.3.72.72.9,1.2.96-2.34,1.8-4.75,2.4-7.21.12,2.34-.18,4.63-.9,6.91.12.48.18,1.02.3,1.5,2.1-6.07,3.9-12.31,5.41-18.62.18,1.62.42,3.18.6,4.81,2.46-6.97,4.26-14.18,5.41-21.62.12-1.38.66-2.58,1.5-3.6,8.71,4.26,17.3,8.65,25.83,13.21,1.5-.48,2.88-.18,4.2.9,9.25,5.83,18.5,11.35,27.63,16.52-3.18.84-6.07,2.22-8.71,4.2-.9,2.58-1.68,5.17-2.4,7.81-2.88-1.62-6.01-2.1-9.31-1.5-6.01,1.98-11.41,4.99-16.22,9.01-14.78,12.67-25.53,28.17-32.14,46.55-2.58,9.73-2.76,19.58-.6,29.43,1.92,4.38,4.81,7.99,8.71,10.81,2.22,1.32,4.63,2.22,7.21,2.7,7.51.78,14.96.18,22.22-1.8,7.69-4.32,15.08-9.13,22.22-14.42,5.11-4.5,9.97-9.19,14.72-14.12.42-.42.42-.78,0-1.2-6.37,7.09-13.63,12.85-21.92,17.42-.18-.12-.42-.18-.6-.3,6.31-4.87,12.01-10.39,17.12-16.52,2.04-2.22,3.54-4.69,4.5-7.51-.42-.42-.78-.42-1.2,0-5.29,4.38-10.51,8.89-15.62,13.51h-.6c4.56-5.17,9.19-10.39,13.82-15.62-.12-.18-.18-.42-.3-.6-3.24,2.94-6.55,5.71-9.91,8.41-5.77,5.05-11.77,9.73-18.02,14.12-3.54,2.28-7.39,4.08-11.41,5.41-11.47,2.16-16.58-2.52-15.32-14.12,1.38-8.59,4.56-16.4,9.61-23.43,7.33-12.19,16.82-22.4,28.53-30.63.18.3.42.6.6.9-1.68,5.89-2.7,11.77-3,17.72.54-.6.96-.6,1.2,0-1.56,3.06-2.1,6.25-1.5,9.61.78-1.2,1.62-2.4,2.4-3.6,0,3.72.6,4.14,1.8,1.2.42.78.78.78,1.2,0,1.26-3.24,2.7-6.43,4.2-9.61.18.78.42,1.62.6,2.4,7.03-14.18,13.33-28.17,18.92-42.05-2.1-2.4-4.32-4.69-6.61-6.91.42-.42.78-.42,1.2,0,2.4,1.98,4.81,4.02,7.21,6.01.6.42,1.2.42,1.8,0-.48-1.08-1.02-2.16-1.5-3.3-16.7-16.64-34.9-31.23-54.66-43.85h0Z" style="fill: #ffc200; fill-rule: evenodd; stroke-width: 0px;"/>
    <path d="m226.45,287.87c.72-.12,1.32.06,1.8.6-2.64,1.44-5.47,2.16-8.41,2.1,2.28-.84,4.5-1.74,6.61-2.7Z" style="fill: #393a38; fill-rule: evenodd; stroke-width: 0px;"/>
    <path d="m454.7,236.52c3.72-1.56,7.09-3.54,10.21-6.01-.6-.18-1.2-.42-1.8-.6,2.52-2.28,2.1-3.12-1.2-2.4,1.26-.72,1.68-1.62,1.2-2.7-4.81,2.22-9.61,4.38-14.42,6.61-.18-.3-.42-.6-.6-.9,3.24-14.66,7.27-29.07,12.01-43.25-1.5-.84-3-.96-4.5-.3-.3-.54-.36-1.14-.3-1.8-5.23,1.5-10.33,3.3-15.32,5.41-1.5,4.14-2.7,8.35-3.6,12.61-2.28,11.05-4.56,22.04-6.91,33.04-8.17,3-16.4,5.41-24.63,7.21,2.22-13.75,5.11-27.39,8.71-40.84.42-1.2.42-2.4,0-3.6-3.84-2.1-7.75-4.08-11.71-6.01-2.52,1.26-5.11,2.4-7.81,3.3-2.7,17.6-4.56,35.32-5.71,53.16-4.02,1.44-8.17,2.7-12.31,3.9-1.14.24-1.74.96-1.8,2.1.24.42.66.72,1.2.9-.66.84-.72,1.74-.3,2.7.9,1.26,2.1,2.04,3.6,2.4.66,1.14,1.2,2.34,1.5,3.6h6.61c-.3,6.49-.48,13.03-.6,19.52.54,9.31.9,18.62,1.2,27.93-.12,1.62,0,3.24.3,4.81.42-1.44,1.02-1.44,1.8,0,.18-2.64.6-5.23,1.2-7.81.18,1.62.42,3.18.6,4.81,1.68-6.91,2.88-13.94,3.6-21.02.18,1.62.42,3.18.6,4.81,2.7-12.25,4.81-24.69,6.31-37.24,8.29-2.88,16.58-5.65,24.93-8.41-1.44,11.41-2.34,22.95-2.7,34.54.06,2.52.36,2.64.9.3.36-1.98.66-4.02.9-6.01.42,1.62.78,3.18,1.2,4.81-.18,4.26,0,8.05.6,11.41.42,2.34.78,4.75,1.2,7.21.42-.24.78-.42,1.2-.6.12,1.92.6,2.16,1.5.6.24-4.26.84-8.47,1.8-12.61.24,5.83.24,11.59,0,17.42.66-1.86,1.5-3.66,2.4-5.41l1.2,1.2c3.24-19.34,6.13-38.8,8.71-58.26.18-.42.42-.78.6-1.2,4.32-1.56,8.53-3.48,12.61-5.71-2.22.3-4.44.66-6.61,1.2,3.42-1.68,6.61-3.72,9.61-6.01-2.4.42-4.81.78-7.21,1.2h0Z" style="fill: #ffc200; fill-rule: evenodd; stroke-width: 0px;"/>
    <path d="m380.81,300.49c1.14,2.94,1.56,6.13,1.2,9.61h-3.6c.84-.6,1.86-.78,3-.6.18-2.82,0-5.65-.6-8.41-.96.48-1.92.66-3,.6.78-.84,1.74-1.26,3-1.2h0Z" style="fill: #e2ba47; fill-rule: evenodd; stroke-width: 0px;"/>
    <path d="m559.81,272.85c-2.7.54-5.53.96-8.41,1.2h-1.2c-.66.54-1.44.78-2.4.6-4.93.3-9.73.9-14.42,1.8h-8.41c-.48,2.16-.48,4.38,0,6.61v1.2c-.9.72-1.92,1.32-3,1.8.6,1.14.72,2.34.3,3.6-.42-.3-.72-.72-.9-1.2h-1.2c.54.72.66,1.56.3,2.4-2.04-2.28-3.12-1.68-3.3,1.8-.72-1.8-1.68-3.42-3-4.81-.42,0-.6.18-.6.6v2.4c1.02,1.86,1.32,3.84.9,6.01-.72-1.62-1.38-3.24-2.1-4.81-1.32-4.81-2.52-9.61-3.6-14.42-2.16-.12-4.2.3-6.01,1.2h-.6c-3.54.3-6.91.9-10.21,1.8-8.17,1.5-16.4,2.88-24.63,4.2-.72,2.4-1.92,4.63-3.6,6.61-.3-1.74.12-3.48,1.2-5.11-.18-.12-.42-.18-.6-.3-1.38,1.14-2.46,2.58-3.3,4.2-.18-.48-.48-.9-.9-1.2-.66.84-1.26,1.74-1.8,2.7-2.58.6-4.5,2.1-5.71,4.5-.18-1.2-.42-2.4-.6-3.6-.96,1.98-2.22,3.66-3.9,5.11-.54.3-1.14.36-1.8.3.36-3.24.96-6.43,1.8-9.61-1.74-.18-3.36,0-4.81.6.18,2.58-.24,4.99-1.2,7.21-1.2,2.94-2.22,5.95-3,9.01,2.1.18,4.14,0,6.01-.6,1.44-.6,3.06-.78,4.81-.6.66-.48,1.44-.78,2.4-.9,9.67-.78,19.28-1.68,28.83-2.7,2.4-.3,4.87-.54,7.33-.72,1.62-.12,3.3-.18,4.93-.24,2.46-.06,4.99-.06,7.51.06-2.52-.06-5.05-.12-7.51-.06-1.68.06-3.3.12-4.93.24-2.46.18-4.93.42-7.33.72,3.12-.18,6.13,0,9.01.6-6.25.3-12.43.9-18.62,1.8v.6c-5.47.18-10.87.78-16.22,1.8h-1.8c-5.23.72-10.45,1.62-15.62,2.7-.3,1.2-.3,2.52,0,3.9-3.06.66-3.06,1.08,0,1.2,5.17-.72,10.39-1.32,15.62-1.8,5.35,0,10.57-.6,15.62-1.8,16.88-2.22,33.7-4.2,50.45-6.01,1.08-.6,2.28-.78,3.6-.6.24-.42.66-.72,1.2-.9,4.02-.36,7.99-.66,12.01-.9,1.68-.48,3.48-.78,5.41-.9l.6-.6c-.54-.18-.96-.48-1.2-.9-2.94-1.86-6.07-3.42-9.31-4.81-.36-.54-.3-1.08.3-1.5,1.2-1.14,2.64-1.8,4.2-2.1,1.92-1.86,4.08-3.24,6.61-4.2.48-.78,1.08-1.5,1.8-2.1,6.07-3.36,12.07-6.85,18.02-10.51-.9-.6-1.92-.78-3-.6h0Zm-34.3,6.55c.48,0,.9.24,1.26.66-.36-.42-.78-.6-1.26-.66Z" style="fill: #ffc200; fill-rule: evenodd; stroke-width: 0px;"/>
    <path d="m306.63,222.4c1.62-7.99,3.18-16.04,4.81-24.03-3.42,7.69-6.49,15.5-9.31,23.43-.3,1.08-.84,2.1-1.5,3-.18-1.56.12-2.94.9-4.2.48-2.58.78-5.23.9-7.81-8.83,21.44-15.8,43.49-21.02,66.07-10.51-14.24-18.56-29.85-24.03-46.85-.42-3.48-.24-6.91.6-10.21-6.43,2.64-12.97,5.11-19.52,7.51-4.08,16.7-6.85,33.58-8.41,50.76-5.41,1.26-10.69,2.88-15.92,4.81-.3-.12-.6-.18-.9-.3,3.18-1.38,6.43-2.82,9.61-4.2-4.56.36-8.95,1.44-13.21,3.3-3.9-16.4-6.85-33.04-8.71-49.85-1.14-.12-2.22-.12-3.3,0-3.9,1.8-7.87,3.3-12.01,4.5-1.08.48-1.98,1.2-2.7,2.1-3.24,8.11-6.25,16.34-9.01,24.63-4.5,11.83-9.43,23.43-14.72,34.84h0c-3.36.66-6.55,1.8-9.61,3.3,2.4-.3,4.81-.78,7.21-1.5.54,0,.96.24,1.2.6.48-.24.84-.54,1.02-.96.12-.18.18-.42.18-.66,0,.24-.12.48-.18.66-.18.42-.54.72-1.02.96-4.93.84-9.55,2.52-13.82,5.11,3.54.66,6.55,1.68,9.01,3-.66,1.44-.24,1.74,1.2.9.18.3.42.6.6.9-4.81,11.77-9.25,23.67-13.21,35.74h.6c1.92-4.08,3.9-8.11,6.01-12.01.54-2.04,1.2-4.02,2.1-6.01-.18,2.58-.9,4.99-2.1,7.21-.84,2.28-1.68,4.56-2.4,6.91.12.96.3,1.02.6.3.6-.9,1.26-1.68,2.1-2.4.18.42.42.78.6,1.2,1.32-.84,2.22-2.04,2.7-3.6.48.54.78,1.14.9,1.8,2.88-6.31,5.89-12.55,9.01-18.62-1.38,4.14-2.76,8.35-4.2,12.61-.42.78-.42,1.62,0,2.4,4.56-9.49,9.07-18.98,13.51-28.53,8.47-2.64,17-5.11,25.53-7.51.54.24.96.66,1.2,1.2,2.64,11.89,5.53,23.73,8.71,35.44.78.12,1.38-.06,1.8-.6-3.42-18.02-2.82-18.26,1.8-.6.48.24.96.48,1.5.6,1.62-.72,3.36-1.14,5.11-1.2-.72-6.07-1.74-12.07-3-18.02.12-1.56.42-1.56.9,0,.9,2.82,1.86,5.65,3,8.41-.36-5.17-1.26-10.15-2.7-15.02-.9-5.41-1.92-10.81-3-16.22,5.41-1.62,10.81-3.18,16.22-4.81-.9,7.03-1.8,14-2.7,21.02-.3,7.63-.42,15.2-.3,22.82.42,0,.6-.18.6-.6.36-2.52,1.08-4.93,2.1-7.21.72,1.08,1.08,2.28,1.2,3.6,1.2-3.48,2.1-7.09,2.7-10.81.48,1.08.78,2.28.9,3.6.24-.36.54-.54.9-.6.66.54,1.44.78,2.4.6,1.8-10.45,3.9-20.84,6.31-31.23.18,2.22.42,4.38.6,6.61,2.28-11.71,4.99-23.31,8.11-34.84,7.93,12.85,16.28,25.47,24.93,37.84-.24,4.99-.54,9.97-.9,15.02.18,1.62.42,3.18.6,4.81.6-.3,1.08-.66,1.5-1.2,3.24,1.98,6.13,1.5,8.71-1.5,1.86-.12,3.66-.42,5.41-.9.96-1.86,2.28-3.48,3.9-4.81,2.46-31.23,7.27-62.05,14.42-92.5,3-10.27,6.01-20.48,9.01-30.63-4.32,10.69-8.35,21.5-12.01,32.44h0Z" style="fill: #ffc200; fill-rule: evenodd; stroke-width: 0px;"/>
    <g>
      <path d="m382.62,299.88h-1.8v.6c1.14,2.94,1.56,6.13,1.2,9.61.6-3.3.78-6.67.6-10.21h0Z" style="fill: #ffc200; fill-rule: evenodd; stroke-width: 0px;"/>
      <path d="m377.81,301.69c-8.65,2.58-17.3,5.35-25.83,8.41-3.36,1.2-6.79,2.16-10.21,3-1.68.6-3.24,1.2-4.81,1.8,1.74.18,3.36,0,4.81-.6,2.88-.72,5.89-1.14,9.01-1.2,0,.42.18.6.6.6.06,2.22.24,4.44.6,6.61h-2.4c1.08.6,2.28.78,3.6.6-.24-1.74-.66-3.42-1.2-5.11.06-.48.3-.84.6-1.2,5.17-1.38,10.39-1.68,15.62-.9,2.82-1.2,5.59-2.22,8.41-3,.66-.06,1.26-.24,1.8-.6.84-.6,1.86-.78,3-.6.18-2.82,0-5.65-.6-8.41-.96.48-1.92.66-3,.6h0Z" style="fill: #ffc200; fill-rule: evenodd; stroke-width: 0px;"/>
      <path d="m352.58,322.71c-3.6.3-7.21.72-10.81,1.2-.84.6-1.86.78-3,.6-.06,1.02-.3,2.04-.6,3,9.79-1.32,19.64-2.76,29.43-4.2,3.72-.6,7.33-1.38,10.81-2.4h3v-3c-7.51.96-14.96,2.16-22.22,3.6-2.34.18-4.5.6-6.61,1.2Z" style="fill: #ffc200; fill-rule: evenodd; stroke-width: 0px;"/>
    </g>
    <path d="m332.16,334.12c-.66.42-1.5.6-2.4.6-3.36-.12-5.77-.72-7.21-1.8v-.6c3.42-.42,6.79-.84,10.21-1.2,1.08,1.68,1.68,1.5,1.8-.6,1.14-.12,2.04.3,2.7,1.2l.9-1.8c24.57-4.02,49.19-7.33,73.88-9.91-27.21,4.69-54.42,9.31-81.69,13.82.54.3,1.14.36,1.8.3Z" style="fill: #ffc200; fill-rule: evenodd; stroke-width: 0px;"/>
    <path d="m351.38,313.7c-.42,0-.6-.18-.6-.6-3.12.06-6.13.48-9.01,1.2-1.44.6-3.06.78-4.81.6-18.74,3.84-37.54,7.33-56.46,10.51-16.52,2.4-32.92,5.29-49.25,8.71-4.81,1.62-9.85,2.58-15.02,3,.18,1.44.48,2.82.9,4.2,1.5,1.32,1.8,2.94.9,4.81-.36-.12-.66-.3-.9-.6-.48-2.4-1.14-4.69-2.1-6.91-2.82-.36-5.65-.24-8.41.3-8.35.84-16.58,2.22-24.63,4.2-4.02.42-7.99.78-12.01,1.2-5.23.9-10.45,1.86-15.62,3-2.64.12-5.29.48-7.81,1.2-1.14-.18-2.16,0-3,.6-1.5.24-1.92-.18-1.2-1.2h-.6c-1.08,1.14-2.1,2.34-3,3.6-1.02,1.26-1.8,2.64-2.4,4.2-1.56,1.44-3.3,2.88-5.11,4.2-.42.72-.36,1.32.3,1.8.96,1.68,1.56,3.48,1.8,5.41-.24,1.98.12,3.78,1.2,5.41.78-1.62,1.62-1.62,2.4,0l2.7-14.42c.96,2.76,1.86,5.59,2.7,8.41,1.02-2.88,1.44-5.89,1.2-9.01.9,1.62,1.5,3.42,1.8,5.41.42-.3.72-.72.9-1.2.12-2.34.42-4.69.9-6.91.48-.42.9-.3,1.2.3.36,1.5.72,2.88,1.2,4.2v9.01h1.8c.3-1.38.48-2.76.6-4.2v-3.6c-.12-.72.06-1.32.6-1.8,1.44,1.02,2.04,2.46,1.8,4.2,1.68,2.58,3.42,5.17,5.11,7.81-.9-4.44-1.62-8.95-2.1-13.51.18-.48.42-1.02.6-1.5,1.2,1.02,2.4,2.04,3.6,3,.84.96,1.86,1.74,3,2.4.42,1.02.78,1.98,1.2,3,1.08-1.62,1.74-1.38,2.1.6.24-.3.54-.48.9-.6,1.44.96,2.94,1.74,4.5,2.4.78-.18.96-.6.6-1.2-1.44-1.32-2.7-2.7-3.9-4.2-.36-.06-.66-.24-.9-.6-.48-2.4-.42-4.81.3-7.21,1.44,1.26,3.06,1.92,4.81,2.1-.54-.42-.9-.9-1.2-1.5,1.68-.6,2.88,0,3.6,1.8,1.5.84,2.88,1.86,4.2,3l.6-.6c-.96-.84-1.5-1.86-1.5-3,2.7,2.22,4.81,4.81,6.31,7.81.72-1.5.72-3,0-4.5.48-.66.9-1.38,1.2-2.1-1.38-2.88-2.04-5.89-2.1-9.01,1.2,1.14,1.8,2.52,1.8,4.2.42-.54.9-.9,1.5-1.2.9.84,1.5,1.86,1.8,3,1.26-.6,2.22-1.38,3-2.4-.6-1.08-.96-2.28-1.2-3.6h3c-.06.9.18,1.68.6,2.4.72,1.26.72,2.46,0,3.6v1.2c-.12,1.2,0,2.4.3,3.6,1.2-1.86,2.28-3.78,3.3-5.71.78-.42,1.62-.42,2.4,0,.9,1.14,2.04,2.04,3.3,2.7.24,1.98,1.38,2.94,3.3,3-.12-.78.12-1.5.6-2.1,1.62-.24,2.82-.9,3.6-2.1-.42-.54-1.02-.72-1.8-.6v-5.41c.72-.12,1.32.06,1.8.6,1.5,1.32,2.88,2.7,4.2,4.2v2.4c-.66,2.1-.78,4.26-.3,6.61.66-.72,1.14-1.5,1.5-2.4.18-.78.42-1.62.6-2.4.48-.72,1.08-1.32,1.8-1.8,1.26.96,2.46,2.1,3.6,3.3.78.3,1.56.42,2.4.3v-2.4c-1.2.18-1.98-.18-2.4-1.2-.54-1.38-1.14-2.82-1.8-4.2-.18-1.32.12-2.52.9-3.6.6.42.9,1.02.9,1.8.6,1.68.96,3.48,1.2,5.41.96-2.16,1.56-4.56,1.8-7.21,2.82,4.2,5.65,8.41,8.41,12.61,1.32,3.24,2.82,6.43,4.5,9.61.72.9,1.2.78,1.5-.3-1.8-5.47-3.78-10.81-6.01-15.92-.54-2.28-1.14-4.63-1.8-6.91,0-.66.24-1.14.6-1.5,2.16,2.88,4.5,5.71,6.91,8.41.3.54.36,1.14.3,1.8h2.4c-.24-1.32.18-2.28,1.2-3,1.68,1.38,3.3,2.88,4.81,4.5.42.42.78.42,1.2,0-2.94-3.84-4.32-8.17-4.2-12.91,1.38.54,2.7,1.32,3.9,2.4.3.96.42,1.98.3,3,1.44-.3,2.58-1.08,3.3-2.4,1.68,1.56,3.18,3.18,4.5,4.81-1.02-2.94-1.32-5.95-.9-9.01,1.02-1.2,2.34-1.8,3.9-1.8.06.84-.18,1.68-.6,2.4.3.48.66.66,1.2.6.72-1.02,1.74-1.68,3-2.1-.42-.78-.9-1.44-1.5-2.1-.12-2.28-.66-4.5-1.5-6.61.18-.42.42-.78.6-1.2.72.66,1.14,1.44,1.2,2.4,1.26.78,1.86,1.98,1.8,3.6-.12.72.06,1.32.6,1.8.96-.48,1.92-.66,3-.6-.18-1.08,0-2.1.6-3,1.86,1.38,3.24,3.42,4.2,6.01-.06-.9.18-1.68.6-2.4.9-.78,1.26-1.74,1.2-3-.78-1.26-1.08-2.64-.9-4.2.66-.9,1.56-1.32,2.7-1.2.18,2.46-.06,4.87-.6,7.21,1.68.96,2.76,2.34,3.3,4.2l.9-7.21c.96-.18,1.74.06,2.4.6v.6c.18.42.42.78.6,1.2,1.32.84,2.16,2.04,2.4,3.6.36.06.66.24.9.6.48-1.38.18-2.58-.9-3.6.06-.36.3-.54.6-.6v-.6c-.54-.42-.72-1.02-.6-1.8-.18-1.44,0-2.88.6-4.2.48.96.78,1.92.9,3,1.14-3,2.04-2.82,2.7.6v2.4c1.62,5.83,2.4,5.59,2.4-.6h1.8c-.24,4.56.36,4.75,1.8.6,1.26-.3,2.22-.9,3-1.8l.9-1.8c.72.66,1.2.42,1.5-.6.42,0,.6-.18.6-.6-.06-1.08.12-2.1.6-3,.18-1.14.6-2.16,1.2-3,1.38.66,1.62,1.68.6,3v5.41c.42.78.78.78,1.2,0,.78-3.48,1.74-3.72,3-.6h.6v.6c-.24,3.12-.72,6.13-1.5,9.01,1.74-1.68,2.88-3.66,3.3-6.01,1.26.18,2.04.84,2.4,2.1.42.42.78.42,1.2,0-1.92-2.04-2.1-4.14-.6-6.31-.18-1.14,0-2.16.6-3,.48-.9.66-1.92.6-3,2.22-.18,3.18.78,3,3h.6v2.4c1.02,3.06,1.8,3.06,2.4,0v-.6c.6-.96,1.2-1.98,1.8-3h1.2c.78.84,1.8,1.26,3,1.2v-1.8c-.66-.48-.72-1.08-.3-1.8l.6.6c.12-.96.66-1.56,1.5-1.8l1.2,1.2v1.8c.72.6,1.08,1.38,1.2,2.4,1.08,1.68,1.68,1.5,1.8-.6,1.14-.12,2.04.3,2.7,1.2l.9-1.8v-2.4c.3-.96.54-1.98.6-3,1.14.18,2.16,0,3-.6h-2.4v-6.01c1.02.78,1.98,1.62,3,2.4.84,1.26,1.98,1.5,3.3.6-.24-6.79,1.08-6.97,3.9-.6h2.4c-.36-2.16-.54-4.38-.6-6.61Zm-108.72,38.44c-2.76-2.34-4.75-5.11-6.01-8.41-.66-1.44-.66-2.82,0-4.2,1.62,3,3.54,5.77,5.71,8.41.6.9.9,1.92.9,3,.06.54-.12.9-.6,1.2Zm53.46-18.62c-.78,0-1.2-.42-1.2-1.2-.12-.72.06-1.32.6-1.8.6.9.78,1.92.6,3Z" style="fill: #779d15; fill-rule: evenodd; stroke-width: 0px;"/>
    <path d="m426.46,302.89c-.36.12-.66.3-.9.6-.3-3.6-.42-7.21-.3-10.81h-3v.6h-1.2c-4.75,1.14-9.55,2.16-14.42,3-.6-.12-1.02.12-1.2.6h-.6c-1.44.12-2.82.3-4.2.6-.24,3.6-.66,7.21-1.2,10.81,8.29-.48,16.52-1.08,24.63-1.8h3c.18-1.26,0-2.46-.6-3.6h0Z" style="fill: #ffc200; fill-rule: evenodd; stroke-width: 0px;"/>
    <path d="m430.67,309.49c-2.52-.12-4.93.3-7.21,1.2-6.97.42-13.76,1.44-20.42,3-1.98-.06-3.78.36-5.41,1.2-.54,1.32-1.32,2.52-2.4,3.6.9.78,1.68.78,2.4,0h1.8c4.02-.18,7.99-.48,12.01-.9,1.14-.06,1.98-.6,2.4-1.5,5.17-.84,10.39-1.5,15.62-2.1,1.08-1.26,1.5-2.76,1.2-4.5Z" style="fill: #ffc200; fill-rule: evenodd; stroke-width: 0px;"/>
  </g>
  <g id="Capa_2" data-name="Capa 2">
    <g>
      <path d="m487.13,72.84c22.52-3.36,44.93-7.15,67.27-11.41-.42-.54-1.02-.72-1.8-.6-22.04,2.64-44.09,5.47-66.07,8.41.18,1.2.42,2.4.6,3.6Z" style="fill: #282e25; fill-rule: evenodd; stroke-width: 0px;"/>
      <path d="m516.56,75.84c-9.31,1.14-18.74,2.16-28.23,3-.12,2.04,0,4.02.3,6.01,5.65-1.2,11.35-2.28,17.12-3.3,2.04-.36,2.16-.66.3-.9-3.3.66-6.61.96-9.91.9,7.93-2.16,15.92-3.96,24.03-5.41-1.2-.3-2.4-.42-3.6-.3Z" style="fill: #282e25; fill-rule: evenodd; stroke-width: 0px;"/>
      <path d="m489.53,147.32c-.66.54-1.44.78-2.4.6v2.4c7.39-1.32,14.78-2.64,22.22-3.9-6.61,0-13.21.3-19.82.9Z" style="fill: #282e25; fill-rule: evenodd; stroke-width: 0px;"/>
      <path d="m461.9,153.32c.18-.96-.06-1.74-.6-2.4-.96.66-1.98,1.38-3,2.1,1.2.3,2.4.42,3.6.3Z" style="fill: #282e25; fill-rule: evenodd; stroke-width: 0px;"/>
      <path d="m484.13,163.24c-.9.72-.78,1.2.3,1.5,1.68-.54,3.36-.96,5.11-1.2-.42-.54-1.02-.72-1.8-.6-1.2-.12-2.4,0-3.6.3Z" style="fill: #282e25; fill-rule: evenodd; stroke-width: 0px;"/>
      <path d="m88.3,218.8c-.48.78-1.08,1.08-1.8.9-2.52-2.46-4.93-4.93-7.21-7.51.48,2.52,1.56,4.75,3.3,6.61,6.31,7.21,14.18,10.93,23.73,11.11-4.26-1.86-8.47-3.84-12.61-6.01-2.1-1.38-3.9-3.12-5.41-5.11Z" style="fill: #282e25; fill-rule: evenodd; stroke-width: 0px;"/>
      <path d="m208.43,337.73c.78.12,1.38-.06,1.8-.6-4.63-17.66-5.23-17.42-1.8.6Z" style="fill: #282e25; fill-rule: evenodd; stroke-width: 0px;"/>
      <path d="m494.34,214.59c-3.66,8.11-6.97,16.34-9.91,24.63,5.11-1.68,10.21-3.42,15.32-5.11-1.56-5.65-2.88-11.35-3.9-17.12-.12-1.08-.6-1.92-1.5-2.4Z" style="fill: #282e25; fill-rule: evenodd; stroke-width: 0px;"/>
      <path d="m228.25,290.87c-5.41,1.62-10.81,3.18-16.22,4.81,1.08,5.41,2.1,10.81,3,16.22,1.44,4.87,2.34,9.85,2.7,15.02-1.14-2.76-2.1-5.59-3-8.41-.48-1.56-.78-1.56-.9,0,1.26,5.95,2.28,11.95,3,18.02,3,.12,5.77-.48,8.41-1.8-.12-7.63,0-15.2.3-22.82.9-7.03,1.8-14,2.7-21.02h0Z" style="fill: #282e25; fill-rule: evenodd; stroke-width: 0px;"/>
      <path d="m196.71,301.69c-8.53,2.4-17.06,4.87-25.53,7.51-4.44,9.55-8.95,19.04-13.51,28.53-.42-.78-.42-1.62,0-2.4,1.44-4.26,2.82-8.47,4.2-12.61-3.12,6.07-6.13,12.31-9.01,18.62-.12-.66-.42-1.26-.9-1.8-.48,1.56-1.38,2.76-2.7,3.6-.18-.42-.42-.78-.6-1.2-.84.72-1.5,1.5-2.1,2.4-.3.72-.48.66-.6-.3.72-2.34,1.56-4.63,2.4-6.91v-1.2c-2.1,3.9-4.08,7.93-6.01,12.01-.72,1.02-.3,1.44,1.2,1.2.84-.6,1.86-.78,3-.6,2.52-.72,5.17-1.08,7.81-1.2,5.17-1.14,10.39-2.1,15.62-3,4.02-.42,7.99-.78,12.01-1.2,8.05-1.98,16.28-3.36,24.63-4.2v-.6c-3.18-11.71-6.07-23.55-8.71-35.44-.24-.54-.66-.96-1.2-1.2h0Z" style="fill: #282e25; fill-rule: evenodd; stroke-width: 0px;"/>
      <path d="m63.07,328.72c-.6,1.44-.78,3.06-.6,4.81.84,4.63,2.34,9.01,4.5,13.21,2.34,3.18,5.47,4.69,9.31,4.5-1.74-.78-3.36-1.74-4.81-3-5.05-5.53-7.81-12.07-8.41-19.52Z" style="fill: #282e25; fill-rule: evenodd; stroke-width: 0px;"/>
      <path d="m361.29,122.69c.42-.66.36-1.26-.3-1.8-2.34-.9-4.75-1.56-7.21-2.1-5.23-.3-10.39-.42-15.62-.3-3.48.48-6.97,1.08-10.51,1.8-1.92,8.53-3.84,17-5.71,25.53.18.3.42.6.6.9,8.53-4.32,16.94-8.83,25.23-13.51,4.69-3.3,9.19-6.79,13.51-10.51Z" style="fill: #282e25; fill-rule: evenodd; stroke-width: 0px;"/>
      <path d="m153.17,130.8c-8.17-2.94-16.58-3.96-25.23-3-14.12,2.82-25.83,9.73-35.14,20.72-2.82,3.48-4.81,7.27-6.01,11.41,2.22-2.4,4.63-4.63,7.21-6.61.9.24,1.8.48,2.7.6-2.46,5.77-4.99,11.59-7.51,17.42-1.44,4.08-2.46,8.29-3,12.61-2.28,18.62,5.23,31.35,22.52,38.14,10.09.54,19.7-1.38,28.83-5.71-8.71.72-17.54,1.92-26.43,3.6-1.44,0-2.64-.48-3.6-1.5,10.75-1.86,21.32-3.96,31.83-6.31-4.56-2.1-8.77-4.81-12.61-8.11,1.14.18,2.34.18,3.6,0-1.92-1.8-3.72-3.72-5.41-5.71.18-.18.42-.42.6-.6.6.54,1.32.9,2.1,1.2.84-.66,1.74-1.14,2.7-1.5-6.79-4.32-14.24-7.15-22.22-8.41.84-.84,1.86-1.32,3-1.5-.84-.6-1.86-.78-3-.6-1.02-.3-2.04-.72-3-1.2,1.38-1.62,3.18-2.52,5.41-2.7-1.2-.18-2.4-.42-3.6-.6,3.72-1.02,7.57-1.62,11.41-1.8-2.28-.96-4.69-1.56-7.21-1.8,8.47-.3,16.46,1.5,24.03,5.41,7.63,3.9,15.14,7.99,22.52,12.31,7.51-11.35,11.41-23.85,11.71-37.54.42-12.85-4.99-22.28-16.22-28.23h0Z" style="fill: #282e25; fill-rule: evenodd; stroke-width: 0px;"/>
      <path d="m570.02,223.9c-3.42-.18-6.79-.42-10.21-.6l.6-.6c6.25-1.08,12.25-2.76,18.02-5.11-9.19.12-18.44,0-27.63-.3l1.8-.9c7.21-1.38,14.42-2.82,21.62-4.2-4.08-.6-8.29-.78-12.61-.6-10.39.12-20.84,0-31.23-.3,5.11-1.86,10.33-3.36,15.62-4.5,1.32-.6,2.7-1.08,4.2-1.5-1.98-.3-4.02-.42-6.01-.3-6.91.72-13.94.78-21.02.3,1.98-.6,3.96-1.02,6.01-1.2-1.32-.12-2.52-.42-3.6-.9-2.04,0-4.02-.18-6.01-.6-.3-2.4-.42-4.81-.3-7.21,2.1-2.7,4.38-5.17,6.91-7.51-2.76,1.2-5.47,2.7-8.11,4.5-.84-4.56-1.56-9.19-2.1-13.82,2.94-.84,5.95-1.44,9.01-1.8-.66-.54-1.44-.78-2.4-.6-2.58.12-5.23.36-7.81.6.12-1.2-.06-2.28-.6-3.3-4.63-.42-9.19-.42-13.82,0-2.64.96-5.23,1.74-7.81,2.4,1.5-4.08,4.08-7.27,7.81-9.61-5.41,1.56-9.07,5.11-11.11,10.51-1.86,1.08-3.72,1.8-5.71,2.1-1.5-1.92-3-3.78-4.5-5.71-.42-1.62-.42-3.18,0-4.81,1.68-6.07,3.48-12.07,5.41-18.02-.24-7.03,1.56-13.39,5.41-19.22,2.34-8.05,0-14.36-6.91-18.92.54-.24,1.02-.54,1.5-.9.72-9.31,1.2-18.62,1.5-27.93.12-7.81-1.32-15.32-4.2-22.52.18-.42.42-.78.6-1.2,2.94-1.2,5.65-2.82,8.11-4.81,2.76-4.02,2.76-8.05,0-12.01-2.28-3.9-5.41-7.03-9.31-9.31-1.62-.36-1.98.12-1.2,1.5-1.74.48-3.54.78-5.41.9.18.18.42.42.6.6-1.38.48-2.58,1.32-3.6,2.4.66.72,1.44,1.02,2.4.9.06.66,0,1.26-.3,1.8-1.38,1.2-2.82,2.4-4.2,3.6-1.38,2.52-2.82,4.93-4.5,7.21-4.75-7.81-10.57-14.72-17.42-20.72-8.29-5.89-15.8-5.23-22.52,2.1-.42.6-.42,1.2,0,1.8,5.47-3.3,5.77-2.52.9,2.4.18.18.42.42.6.6.9-.78,1.92-1.38,3-1.8.36.72.48,1.5.3,2.4,1.62-1.44,3-3,4.2-4.81.12,1.26.42,2.46.9,3.6,1.62-1.74,3-3.6,4.2-5.71.78-.42,1.62-.42,2.4,0,1.92,2.52,3.6,5.23,5.11,8.11,1.02,4.14,2.46,8.17,4.2,12.01,4.2,3.6,8.17,7.39,12.01,11.41.06,1.92-.24,3.72-.9,5.41-1.2,4.02-2.4,7.99-3.6,12.01,1.02,7.63,1.98,15.2,3,22.82.6,5.41.72,10.81.3,16.22-7.57,8.47-14.96,17.12-22.22,25.83-4.75,6.43-3.24,10.15,4.5,11.11,7.15-3.06,14.18-6.31,21.02-9.61-.36.96-.6,1.92-.6,3,2.04,8.77,2.94,17.72,2.7,26.73,3.96,2.76,7.57,5.95,10.81,9.61.3,2.4-.42,2.82-2.1,1.2-1.32-1.44-2.52-2.94-3.6-4.5-2.94-.9-5.23-2.64-6.91-5.11-.72-5.59-1.14-11.17-1.2-16.82-.54-2.16-1.26-4.26-2.1-6.31-4.87-.24-9.43.72-13.82,3-1.98.48-3.96.78-6.01.9-2.64-.42-5.23-1.02-7.81-1.8-1.62.18-3.18.42-4.81.6,1.2,10.69,2.4,21.44,3.6,32.14-.72,2.1-1.44,4.2-2.1,6.31-1.2-12.61-2.28-25.23-3.3-37.84-10.03,1.14-20,2.34-30.03,3.6v-2.4c9.85-1.08,19.64-2.28,29.43-3.6-.72-7.63-1.2-15.2-1.5-22.82.78-.54,1.68-.66,2.58-.48.3,6.49.48,16.04.96,21.5,1.38,1.08,2.88,1.44,4.63,1.02.3-.06.78-.24.72-.54-1.08-6.79,2.52-10.03,5.11-12.67.06.06.06.12.12.18,2.16-2.52,4.14-5.11,6.01-7.81h0c.72-1.02,1.92-2.82,2.4-3.12,0-.06.06-.06.06-.06,3.42-3.96,7.03-7.81,10.87-11.47.18-.12.3-.3.3-.54.24-2.04.36-4.14.24-6.25-.3-9.85-1.26-19.7-3-29.61v-.18c.06-1.86.3-3.66.78-5.41.12-.66-.42-1.26-1.08-1.14-10.69,1.8-21.44,3.42-32.26,4.81-.36.06-.66.3-.78.6-.36.84-.48,1.8-.36,2.76,1.2,11.71,2.46,23.43,3.84,35.08.06.3.18.48.36.66.54.42.24,1.5.06,2.34-3.42-1.26-6.85-2.52-10.27-3.78-8.65.72-8.77,0-.3-2.1,2.28.66,4.63,1.26,6.91,1.8-.84-12.25-1.86-24.45-3-36.64h-3.6c-37.12,5.77-74.36,11.17-111.72,16.22-4.26,1.02-8.71,1.5-13.21,1.5,3.96-.9,7.99-1.62,12.01-2.1,32.62-5.23,65.23-10.27,97.91-15.02h0c7.75-1.5,15.56-2.7,23.43-3.6,11.17-1.98,22.4-3.78,33.64-5.41-.12-.78.12-1.5.6-2.1-.36-.3-.78-.36-1.2-.3-10.39,1.5-20.78,2.88-31.23,4.2-.42.54-1.02.72-1.8.6-10.75,1.2-21.38,2.76-31.83,4.81h-4.2c-2.88.66-5.89,1.08-9.01,1.2-7.27,1.14-14.48,2.34-21.62,3.6h0c-7.57.42-14.96,1.38-22.22,3h-.6c-9.01,1.14-18.02,2.34-27.03,3.6-1.02.42-1.98.78-3,1.2h0c-5.47.18-10.87.78-16.22,1.8-6.19.96-12.37,1.74-18.62,2.4-7.27,1.5-14.66,2.52-22.22,3-12.13,1.98-24.33,3.96-36.64,6.01-.06.36-.24.66-.6.9-2.58.36-5.23.66-7.81.9.18.9-.06,1.68-.6,2.4-1.26.84-1.86.42-1.8-1.2-6.79.78-13.63,1.62-20.42,2.4-1.98.3-4.02.42-6.01.3-3-2.7-6.43-4.81-10.21-6.31h0c-2.58-.78-5.17-1.56-7.81-2.4-1.26.96-2.28.78-3-.6-6.07-1.74-12.25-2.22-18.62-1.5.48.54,1.08.96,1.8,1.2-.72.12-1.38.18-2.1.3-3.9-.78-7.81-.78-11.71,0-12.19,3.48-23.37,8.89-33.64,16.22-1.26,1.8-2.88,3.3-4.81,4.5-27.27,4.81-54.48,9.79-81.69,15.02-2.04.36-2.16.66-.3.9,12.49-1.8,24.99-3.42,37.54-4.81,13.09-2.34,26.31-4.26,39.64-5.71l-1.8,1.8c-4.69.66-9.25,1.56-13.82,2.7,2.28.24,4.69.3,7.21.3-2.16.6-4.38,1.08-6.61,1.5-1.98.18-4.02.42-6.01.6-.18.48-.6.72-1.2.6-3.78.54-7.63,1.14-11.41,1.8-11.47,2.82-23.07,5.35-34.84,7.51,10.63-.54,21.2-1.26,31.83-2.1,1.02.12,1.98.18,3,.3-3.54,1.02-7.15,1.74-10.81,2.1.78.42,1.68.6,2.7.6,9.49-1.14,19.04-2.04,28.53-2.7-8.71,1.5-16.94,3.36-24.63,5.71,7.93-.78,15.86-1.8,23.73-3,.3.18.6.42.9.6-1.32,1.86-2.34,3.84-3,6.01-.48.18-1.02.42-1.5.6-11.35,2.16-22.64,4.5-33.94,6.91,9.85.3,19.7-.42,29.43-2.1,3,.06,3.18.78.6,2.1-3,.66-6.01,1.38-9.01,2.1,3.06.6,6.31.78,9.61.6.12.78-.06,1.38-.6,1.8-4.75.66-4.75,1.2,0,1.5-.72,3.06-1.38,6.19-2.1,9.31-1.92,13.51,0,26.43,5.71,38.74-3.06,1.32-6.25,2.34-9.61,3h10.81c1.92,3.24,4.08,6.25,6.61,9.01-22.58,6.19-45.23,12.07-67.87,17.72.66.54,1.44.78,2.4.6,22.22-2.88,44.45-5.71,66.67-8.41,1.38.12,2.82.18,4.2.3-11.77,3-23.61,5.83-35.44,8.41,9.01-.6,18.02-1.08,27.03-1.5,2.88-.72,5.89-.78,9.01-.3-.72.48-1.56.78-2.4.9-15.86,3.6-31.65,7.21-47.45,10.81,3.72.48,7.51.48,11.41,0,6.19-.48,12.43-.96,18.62-1.5,12.97-2.34,25.95-3.9,39.04-4.81-13.45,2.82-26.85,5.71-40.24,8.71,6.19.42,12.43.78,18.62,1.2,2.22-.12,4.38,0,6.61.3-4.38,1.02-8.83,1.98-13.21,3,2.58.06,5.23.06,7.81,0-3.18.72-6.43,1.44-9.61,2.1v.6c4.02-.48,7.99-.6,12.01-.3-18.2,20-26.79,43.55-25.83,70.58-4.56,1.2-9.19,2.28-13.82,3.3,4.99-.36,9.97-.54,15.02-.6,1.32,4.26,2.82,8.35,4.5,12.31-18.86,5.23-37.78,10.33-56.76,15.32,20.3-2.28,40.66-4.81,60.97-7.51,1.32.12,2.58.18,3.9.3,4.38,3,9.19,4.99,14.42,6.01,15.74.78,30.15-3.12,43.25-11.71-.78.12-1.5-.12-2.1-.6l-5.41,1.8c-1.14-.18-1.92-.78-2.4-1.8-1.02,1.5-1.5,1.5-1.5.12,0,1.44.54,1.38,1.5-.12.48,1.02,1.26,1.62,2.4,1.8l5.41-1.8c.6.48,1.32.72,2.1.6,5.35-.84,10.75-1.44,16.22-1.8.9-1.26,1.92-2.46,3-3.6,3.96-12.07,8.41-23.97,13.21-35.74-.18-.3-.42-.6-.6-.9-1.44.84-1.86.54-1.2-.9-2.46-1.32-5.47-2.34-9.01-3,4.26-2.58,8.89-4.26,13.82-5.11-.24-.36-.66-.6-1.2-.6-2.4.72-4.81,1.2-7.21,1.5,3.06-1.5,6.25-2.64,9.61-3.3,5.29-11.41,10.21-23.01,14.72-34.84,2.76-8.29,5.77-16.52,9.01-24.63.72-.9,1.62-1.62,2.7-2.1,4.14-1.2,8.11-2.7,12.01-4.5,1.08-.12,2.16-.12,3.3,0,1.86,16.82,4.81,33.46,8.71,49.85,4.26-1.86,8.65-2.94,13.21-3.3-3.18,1.38-6.43,2.82-9.61,4.2.3.12.6.18.9.3,5.23-1.92,10.51-3.54,15.92-4.81,1.56-17.18,4.32-34.06,8.41-50.76,6.55-2.4,13.09-4.87,19.52-7.51-.84,3.3-1.02,6.73-.6,10.21,5.47,17,13.51,32.62,24.03,46.85,5.23-22.58,12.19-44.63,21.02-66.07-.12,2.58-.42,5.23-.9,7.81-.12.6.12,1.02.6,1.2,2.82-7.93,5.89-15.74,9.31-23.43-1.62,7.99-3.18,16.04-4.81,24.03,3.66-10.93,7.69-21.74,12.01-32.44-3,10.15-6.01,20.36-9.01,30.63-7.15,30.45-11.95,61.27-14.42,92.5-1.62,1.32-2.94,2.94-3.9,4.81-1.74.48-3.54.78-5.41.9-2.58,3-5.47,3.48-8.71,1.5-.42.54-.9.9-1.5,1.2-.18-1.62-.42-3.18-.6-4.81.36-5.05.66-10.03.9-15.02-8.65-12.37-17-24.99-24.93-37.84-3.12,11.53-5.83,23.13-8.11,34.84-.18-2.22-.42-4.38-.6-6.61-2.4,10.39-4.5,20.78-6.31,31.23-.96.18-1.74-.06-2.4-.6-.36.06-.66.24-.9.6-.12-1.32-.42-2.52-.9-3.6-.6,3.72-1.5,7.33-2.7,10.81-.12-1.32-.48-2.52-1.2-3.6-1.02,2.28-1.74,4.69-2.1,7.21h5.41c16.34-3.42,32.74-6.31,49.25-8.71,18.92-3.18,37.72-6.67,56.46-10.51,1.56-.6,3.12-1.2,4.81-1.8,3.42-.84,6.85-1.8,10.21-3,8.53-3.06,17.18-5.83,25.83-8.41.78-.84,1.74-1.26,3-1.2v-.6h1.8c.18,3.54,0,6.91-.6,10.21h-3.6c-.54.36-1.14.54-1.8.6-2.82.78-5.59,1.8-8.41,3-5.23-.78-10.45-.48-15.62.9-.3.36-.54.72-.6,1.2.54,1.68.96,3.36,1.2,5.11-1.32.18-2.52,0-3.6-.6-2.82-6.37-4.14-6.19-3.9.6-1.32.9-2.46.66-3.3-.6-1.02-.78-1.98-1.62-3-2.4v6.01h2.4c3.6-.48,7.21-.9,10.81-1.2,2.1-.6,4.26-1.02,6.61-1.2,7.27-1.44,14.72-2.64,22.22-3.6v3h-3c-3.48,1.02-7.09,1.8-10.81,2.4-9.79,1.44-19.64,2.88-29.43,4.2v2.4c24.57-4.02,49.19-7.33,73.88-9.91-27.21,4.69-54.42,9.31-81.69,13.82.54.3,1.14.36,1.8.3,40.36-3.3,80.61-7.51,120.73-12.61-.06-3.24.12-6.43.6-9.61v-.6c-5.23.48-10.45,1.08-15.62,1.8-3.06-.12-3.06-.54,0-1.2-.3-1.38-.3-2.7,0-3.9,5.17-1.08,10.39-1.98,15.62-2.7h1.8c5.35-1.02,10.75-1.62,16.22-1.8v-.6c6.19-.9,12.37-1.5,18.62-1.8-2.88-.6-5.89-.78-9.01-.6-9.55,1.02-19.16,1.92-28.83,2.7-.96.12-1.74.42-2.4.9-1.74-.18-3.36,0-4.81.6-1.86.6-3.9.78-6.01.6.78-3.06,1.8-6.07,3-9.01-.12-2.58.3-4.99,1.2-7.21,1.44-.6,3.06-.78,4.81-.6-.84,3.18-1.44,6.37-1.8,9.61.66.06,1.26,0,1.8-.3,1.68-1.44,2.94-3.12,3.9-5.11.18,1.2.42,2.4.6,3.6,1.2-2.4,3.12-3.9,5.71-4.5.54-.96,1.14-1.86,1.8-2.7.42.3.72.72.9,1.2.84-1.62,1.92-3.06,3.3-4.2.18.12.42.18.6.3-1.08,1.62-1.5,3.36-1.2,5.11,1.68-1.98,2.88-4.2,3.6-6.61,8.23-1.32,16.46-2.7,24.63-4.2,3.3-.9,6.67-1.5,10.21-1.8h.6c1.8-.9,3.84-1.32,6.01-1.2,1.08,4.81,2.28,9.61,3.6,14.42,1.02.72,1.44.3,1.2-1.2v-2.4c-4.02-12.97-7.57-26.19-10.51-39.64-.54-.36-1.14-.54-1.8-.6-7.81,2.04-15.5,4.38-23.13,6.91-.9.72-1.62,1.62-2.1,2.7-3.78,8.83-7.63,17.6-11.41,26.43.84-4.93,2.04-9.73,3.6-14.42-2.88,6.19-5.83,12.43-8.71,18.62-.42-.3-.72-.72-.9-1.2-1.02,1.62-2.22,3-3.6,4.2-.18-3.96.54-7.75,2.1-11.41.12-.6-.12-1.02-.6-1.2-2.52,5.41-4.99,10.81-7.51,16.22-.6.72-.9.54-.9-.6,4.14-12.55,8.47-24.99,12.91-37.24-1.08.66-1.56.24-1.5-1.2-1.02.12-2.04,0-3-.3l1.2-1.2c-3-.9-6.01-1.08-9.01-.6.78-.6,1.62-1.2,2.4-1.8-.78-.42-.78-.78,0-1.2,1.8-.48,3.6-.9,5.41-1.2-.78-.42-.78-.78,0-1.2,3.54-1.02,6.91-2.28,10.21-3.9,7.39-17.84,14.3-35.86,20.72-54.06.9-1.68,1.98-3.18,3.3-4.5,4.2-1.38,8.41-2.82,12.61-4.2.84-.48,1.68-.36,2.4.3,3.06,15.74,6.07,31.41,9.01,47.15,4.56-.6,9.07-1.68,13.51-3.3.3.12.6.18.9.3-3.18,1.38-6.37,2.76-9.61,4.2,6.01-1.2,12.01-2.7,18.02-4.5.6.12,1.2.18,1.8.3-.48.6-.72,1.32-.6,2.1-1.08,0-2.1.3-3,.9,1.44.12,2.82.42,4.2.9-.48.78-1.08,1.5-1.8,2.1-4.26,1.14-8.47,2.58-12.61,4.2,3.84-.06,7.69-.48,11.41-1.2-6.25,2.7-12.67,5.05-19.22,6.91,1.62,8.59,3.18,17.18,4.81,25.83-.12,1.02-.18,1.98-.3,3-.9-2.82-1.86-5.65-3-8.41.96,6.37,2.1,12.79,3.3,19.22-.18.6-.42,1.2-.6,1.8-.66-.72-1.14-1.5-1.5-2.4.18,2.4.48,4.81.9,7.21.18.48.48.9.9,1.2.42-1.26.3-2.46-.3-3.6,1.08-.48,2.1-1.08,3-1.8v-1.2c-.48-2.22-.48-4.44,0-6.61-.78-.6-.78-1.32,0-2.1,4.32-1.56,8.71-2.64,13.21-3.3-1.62-.42-3.18-.78-4.81-1.2-.48-5.53-1.32-11.05-2.4-16.52.72-1.02,1.68-1.62,3-1.8,2.64-.48,5.23-1.08,7.81-1.8-3.78-.3-7.63-.42-11.41-.3v-1.8c8.83-1.56,17.6-3.3,26.43-5.11-4.2-.96-8.41-1.62-12.61-2.1-.36-2.16-.18-4.38.6-6.61.18-.66.6-1.2,1.2-1.5,5.17-1.56,10.39-2.88,15.62-3.9-1.86-.48-3.9-.78-6.01-.9,1.14-.48,2.34-.78,3.6-.9,3.54-1.08,7.15-1.98,10.81-2.7h0Zm-218.04-136.35c.54.3,1.14.36,1.8.3h0c-.66.06-1.26,0-1.8-.3h0Zm-21.32,3.9c.12.06.3.18.48.3.12.12.3.18.48.3h0c-.12-.12-.3-.18-.42-.3s-.36-.24-.54-.3c-.3.12-.66.24-.96.3.3-.06.66-.18.96-.3h0Zm-5.11,0c.24.12.48.18.72.24-.24-.06-.48-.18-.72-.24h0Zm-3.6.9h0c-.54.06-1.08.18-1.62.42.54-.24,1.08-.36,1.62-.42Zm-2.34.72c-.24.12-.48.3-.66.42h0c.24-.12.42-.24.66-.42Zm-138.69,36.46c.12-.12.3-.18.48-.24.42.24.78.48,1.08.66-.3-.24-.66-.42-1.08-.66-.18.06-.36.12-.48.24-.12.12-.3.24-.42.36,0-2.22-.6-2.64-1.8-1.2-.12-.24-.24-.42-.42-.66.12.18.3.42.42.66,1.2-1.44,1.8-1.02,1.8,1.2.12-.18.24-.3.42-.36Zm-6.73-8.65c-.3.18-.66.3-.96.36.3-.12.66-.18.96-.36,2.22.42,4.38.78,6.61,1.2h0c-2.22-.42-4.38-.78-6.61-1.2Zm3.06,6.13c-.18-.12-.42-.3-.66-.42h0c.24.12.42.24.66.42Zm-1.26-10.33c1.86-.06,3.48-.66,4.81-1.8h0c-1.32,1.14-2.94,1.74-4.81,1.8-1.62-.12-3-.72-4.2-1.8-.12-.06-.18-.12-.24-.18.06.06.12.12.24.18,1.2,1.08,2.58,1.68,4.2,1.8Zm-9.91-6.61c1.68,1.44,3.6,2.52,5.71,3.3h0c-2.1-.78-4.02-1.86-5.71-3.3-.24.48-.54.84-.9,1.14.36-.3.66-.66.9-1.14Zm5.23,8.89c-.18-.06-.42-.12-.72-.18h0c.3.06.54.12.72.18Zm-9.13-8.89c.78-.36,1.32-.54,1.74-.66-.42.06-.96.3-1.74.66-.18-.3-.42-.6-.6-.9.18.3.42.6.6.9Zm1.14,1.62c-.18,0-.36-.06-.54-.12h0c.18.06.36.06.54.12Zm-26.97,167.46c-.24.78-.6.96-1.2.6.36-.42.54-.96.6-1.5,0-1.14-.3-1.32-.9-.6-.84,3.48-1.8,6.85-3,10.21-.42.78-.78.78-1.2,0-.24.72-.66,1.32-1.2,1.8-.18-1.38-.42-2.82-.6-4.2-.6,1.38-1.2,2.82-1.8,4.2-.48-1.56-.78-3.18-.9-4.81.48-2.58.78-5.23.9-7.81-1.02,3.06-1.5,3.06-1.5,0,0-3.72.42-7.33,1.2-10.81v-3c-2.16.18-4.14.9-6.01,2.1-15.74,9.13-28.05,21.62-36.94,37.54-4.2,7.93-6.01,16.34-5.41,25.23.06,5.41,2.34,9.55,6.91,12.31,5.35.72,10.57.12,15.62-1.8,10.63-5.65,20.42-12.43,29.43-20.42,4.14-4.56,8.53-8.53,13.21-12.01-4.26,5.89-8.95,11.35-14.12,16.52-.42.42-.42.78,0,1.2,5.11-4.69,10.21-9.43,15.32-14.12.42-.42.78-.42,1.2,0-.84,1.02-.66,1.8.6,2.4-3.6,4.38-7.33,8.65-11.11,12.91-3.12,3.3-6.43,6.43-9.91,9.31.84.18,1.62,0,2.4-.6,7.09-5.29,13.57-11.17,19.52-17.72.18.84,0,1.62-.6,2.4-9.25,10.27-19.76,18.98-31.53,26.13-.72.42-.72.72,0,.9,1.14-.54,2.22-1.14,3.3-1.8.12.18.18.42.3.6-1.8,1.26-3.6,2.46-5.41,3.6,0,.3.06.6.06.9,0-.3,0-.6-.06-.9-8.59,4.44-17.66,6.85-27.33,7.21-14.24.24-22.58-6.67-24.93-20.72-.84-7.33-.78-14.66.3-21.92,3.96-14.72,10.75-27.93,20.42-39.64,8.11-9.67,18.02-16.82,29.73-21.32,4.99-1.32,9.85-1.2,14.72.3.06-3.42.18-6.85.3-10.21,4.2-1.92,8.59-2.94,13.21-3h0c1.62.42,3.12,1.2,4.5,2.4.12,1.08.18,2.22.3,3.3-1.44,11.95-4.2,23.55-8.41,34.84Zm-15.62-38.74h0c-3.18.6-6.37.78-9.61.6h0c3.24.18,6.43,0,9.61-.6Zm-1.8-2.1c1.62-.18,3.24-.48,4.81-.9.96,1.5,1.86,1.5,2.7,0,1.44.18,2.82.36,4.2.6,1.08,0,1.98-.42,2.7-1.2.48.18.9.48,1.2.9,2.22.18,4.38.42,6.61.6h0c-2.22-.18-4.38-.42-6.61-.6-.3-.42-.72-.72-1.2-.9-.72.78-1.62,1.2-2.7,1.2-1.38-.24-2.76-.42-4.2-.6-.84,1.5-1.74,1.5-2.7,0-1.56.42-3.18.72-4.81.9h0Zm-7.81.3c-.18,0-.42.06-.6.06-.6,0-1.2-.12-1.8-.36h0c.6.24,1.14.36,1.8.36.18,0,.42-.06.6-.06h0Zm172.39-42.65c-1.02,1.38-2.22,2.58-3.6,3.6-1.8-.12-3,.72-3.6,2.4,1.08-.18,2.1,0,3,.6-.24.6-.6,1.02-1.2,1.2-4.26,4.63-9.25,8.23-15.02,10.81-.78,1.2-1.98,1.86-3.6,2.1-2.34.12-4.5.42-6.61.9v.6c1.56.12,1.56.42,0,.9-6.97.96-14,1.14-21.02.6l-1.2-1.2c-2.4-.18-4.81-.42-7.21-.6-.36-.24-.54-.54-.6-.9h-1.2c-1.62.3-3.18.42-4.81.3,1.26-.42,1.38-.96.3-1.5-.96.48-1.86,1.08-2.7,1.8l-.6-.6c.42-.6.78-1.2,1.2-1.8-4.02-1.32-5.05-.18-3,3.3-1.2.3-2.4.42-3.6.3-.36.36-.84.6-1.5.6-1.68-.6-3.42-.9-5.11-.9,1.74.9,3.54,1.74,5.41,2.4,1.5.9,1.5,1.68,0,2.4-1.38.42-2.82.42-4.2,0-1.68-1.02-3.48-1.44-5.41-1.2,1.38.48,2.58,1.32,3.6,2.4l-1.2,1.2c-8.89,2.94-17.66,2.7-26.43-.6-4.32-1.38-8.65-2.88-12.91-4.5-13.51,10.39-28.83,16.04-45.95,16.82h0c-7.93.84-15.32-.66-22.22-4.5.3-.12.6-.18.9-.3,1.68.6,3.36.72,5.11.3-7.27-3.18-13.33-7.87-18.32-14.12.6,1.62,1.2,3.18,1.8,4.81-9.73-9.07-14.96-20.24-15.62-33.64.6-33.76,15.92-58.26,45.95-73.58,15.5-7.45,31.35-8.23,47.45-2.4,9.07,4.56,16.1,11.29,21.02,20.12h0c1.74,4.26,3,8.65,3.9,13.21-.06,11.23-.06,22.4,0,33.64-1.98,8.41-5.29,16.22-9.91,23.43,10.09,5.29,20.54,9.91,31.23,13.82,1.2-.54,1.38-1.38.6-2.4.9-.6,1.92-.78,3-.6v-1.8c-3.72-.12-5.77-2.16-6.01-6.01.9.18,1.68-.06,2.4-.6-.42-.18-.78-.42-1.2-.6-1.38.78-2.82,1.62-4.2,2.4-2.28-.42-4.5-.42-6.61,0,.48-.42.9-.9,1.2-1.5-1.32-1.26-1.38-2.58-.3-3.9,1.32,3.12,3.6,4.14,6.91,3-3.54-.96-5.95-3.18-7.21-6.61-.42.84-.96,1.62-1.5,2.4-.54-.36-.84-.84-.9-1.5.72-.9.66-1.62-.3-2.1-1.02.36-1.14.96-.3,1.8-1.86,2.52-3.06,2.34-3.6-.6h2.4c.54-1.26.54-2.46,0-3.6.36-1.38.6-1.2.6.6h1.8c.12-1.2,0-2.4-.3-3.6-.3,1.08-.84,1.26-1.5.6,1.02-2.4.18-3.6-2.4-3.6,0-.96-.24-1.86-.6-2.7.72-.78,1.14-1.68,1.2-2.7-.66-2.22-1.26-4.44-1.8-6.61.48-3.42.48-7.03,0-10.81v-3c-1.2-6.07-.42-11.83,2.4-17.42,1.44-3.48,3-6.85,4.81-10.21.66-1.68,1.86-2.64,3.6-3,.66-2.46,1.86-4.69,3.6-6.61,4.81-6.55,11.17-10.75,19.22-12.61,1.8-.66,3.6-.48,5.41.6,17.42-4.69,33.22-1.68,47.45,9.01,2.28,1.98,4.5,4.08,6.61,6.31-.54.3-1.14.36-1.8.3-.72-.12-1.32.06-1.8.6,1.32,1.14,2.16,2.52,2.4,4.2.42.6.78,1.2,1.2,1.8,1.14.18,2.16.6,3,1.2,1.14.24,2.04.84,2.7,1.8,5.17,7.69,7.69,16.22,7.51,25.53.66,11.59-2.7,21.68-10.21,30.33Zm97.01,82.89c-4.75,4.93-9.61,9.61-14.72,14.12-7.15,5.29-14.54,10.09-22.22,14.42-7.27,1.98-14.72,2.58-22.22,1.8-2.58-.48-4.99-1.38-7.21-2.7-3.9-2.82-6.79-6.43-8.71-10.81-2.16-9.85-1.98-19.7.6-29.43,6.61-18.38,17.36-33.88,32.14-46.55,4.81-4.02,10.21-7.03,16.22-9.01,3.3-.6,6.43-.12,9.31,1.5.72-2.64,1.5-5.23,2.4-7.81,2.64-1.98,5.53-3.36,8.71-4.2-9.13-5.17-18.38-10.69-27.63-16.52-1.32-1.08-2.7-1.38-4.2-.9-8.53-4.56-17.12-8.95-25.83-13.21-.84,1.02-1.38,2.22-1.5,3.6-1.14,7.45-2.94,14.66-5.41,21.62-.18-1.62-.42-3.18-.6-4.81-1.5,6.31-3.3,12.55-5.41,18.62-.12-.48-.18-1.02-.3-1.5.72-2.28,1.02-4.56.9-6.91-.6,2.46-1.44,4.87-2.4,7.21-.18-.48-.48-.9-.9-1.2-.54,1.68-1.2,3.3-2.1,4.81.24-3.78.72-7.63,1.5-11.41,0-.42-.18-.6-.6-.6-.42,1.62-.96,3.18-1.5,4.81-.96-12.43-.06-24.75,2.7-36.94-.72-1.74-1.5-3.48-2.4-5.11.66-1.02.24-1.44-1.2-1.2-.12-1.44,0-2.82.3-4.2,1.74-1.2,3.66-2.04,5.71-2.4,1.32-9.85,2.94-19.7,4.81-29.43-5.17,1.56-10.39,2.94-15.62,4.2.06-4.44-.36-8.83-1.2-13.21.06-.96.24-1.86.6-2.7,5.95-1.98,11.95-3.72,18.02-5.11,1.26-1.74,2.64-3.48,4.2-5.11,3.9-1.62,8.05-2.52,12.31-2.7,1.92.42,2.82,1.62,2.7,3.6,9.55-1.14,19.16-1.44,28.83-.9,5.65.18,10.75,1.86,15.32,5.11,2.88,5.89,2.7,11.71-.6,17.42-4.69,6.79-10.57,12.19-17.72,16.22-4.08,3.42-8.47,6.43-13.21,9.01-2.82,1.8-5.83,3.3-9.01,4.5-.6.42-.66.96-.3,1.5,19.76,12.61,37.96,27.21,54.66,43.85.48,1.14,1.02,2.22,1.5,3.3-.6.42-1.2.42-1.8,0-2.4-1.98-4.81-4.02-7.21-6.01-.42-.42-.78-.42-1.2,0,2.28,2.22,4.5,4.5,6.61,6.91-5.59,13.88-11.89,27.87-18.92,42.05-.18-.78-.42-1.62-.6-2.4-1.5,3.18-2.94,6.37-4.2,9.61-.42.78-.78.78-1.2,0-1.2,2.94-1.8,2.52-1.8-1.2-.78,1.2-1.62,2.4-2.4,3.6-.6-3.36-.06-6.55,1.5-9.61-.24-.6-.66-.6-1.2,0,.3-5.95,1.32-11.83,3-17.72-.18-.3-.42-.6-.6-.9-11.71,8.23-21.2,18.44-28.53,30.63-5.05,7.03-8.23,14.84-9.61,23.43-1.26,11.59,3.84,16.28,15.32,14.12,4.02-1.32,7.87-3.12,11.41-5.41,6.25-4.38,12.25-9.07,18.02-14.12,3.36-2.7,6.67-5.47,9.91-8.41.12.18.18.42.3.6-4.63,5.23-9.25,10.45-13.82,15.62h.6c5.11-4.63,10.33-9.13,15.62-13.51.42-.42.78-.42,1.2,0-.96,2.82-2.46,5.29-4.5,7.51-5.11,6.13-10.81,11.65-17.12,16.52.18.12.42.18.6.3,8.23-4.56,15.56-10.33,21.92-17.42.42.42.42.78,0,1.2Zm81.39-43.55c-3,2.28-6.19,4.32-9.61,6.01,2.16-.54,4.38-.9,6.61-1.2-4.08,2.22-8.29,4.14-12.61,5.71-.18.42-.42.78-.6,1.2-2.58,19.46-5.47,38.92-8.71,58.26l-1.2-1.2c-.9,1.74-1.74,3.54-2.4,5.41.24-5.83.24-11.59,0-17.42-.96,4.14-1.56,8.35-1.8,12.61-.9,1.56-1.38,1.32-1.5-.6-.42.18-.78.36-1.2.6-.42-2.46-.78-4.87-1.2-7.21-.6-3.36-.78-7.15-.6-11.41-.42-1.62-.78-3.18-1.2-4.81-.24,1.98-.54,4.02-.9,6.01-.54,2.34-.84,2.22-.9-.3.36-11.59,1.26-23.13,2.7-34.54-8.35,2.76-16.64,5.53-24.93,8.41-1.5,12.55-3.6,24.99-6.31,37.24-.18-1.62-.42-3.18-.6-4.81-.72,7.09-1.92,14.12-3.6,21.02-.18-1.62-.42-3.18-.6-4.81-.6,2.58-1.02,5.17-1.2,7.81-.78-1.44-1.38-1.44-1.8,0-.3-1.56-.42-3.18-.3-4.81-.3-9.31-.66-18.62-1.2-27.93.12-6.49.3-13.03.6-19.52h-6.61c-.3-1.26-.84-2.46-1.5-3.6-1.5-.36-2.7-1.14-3.6-2.4-.42-.96-.36-1.86.3-2.7-.54-.18-.96-.48-1.2-.9.06-1.14.66-1.86,1.8-2.1,4.14-1.2,8.29-2.46,12.31-3.9,1.14-17.84,3-35.56,5.71-53.16,2.7-.9,5.29-2.04,7.81-3.3,3.96,1.92,7.87,3.9,11.71,6.01.42,1.2.42,2.4,0,3.6-3.6,13.45-6.49,27.09-8.71,40.84,8.23-1.8,16.46-4.2,24.63-7.21,2.34-10.99,4.63-21.98,6.91-33.04.9-4.26,2.1-8.47,3.6-12.61,4.99-2.1,10.09-3.9,15.32-5.41-.06.66,0,1.26.3,1.8,1.5-.66,3-.54,4.5.3-4.75,14.18-8.77,28.59-12.01,43.25.18.3.42.6.6.9,4.81-2.22,9.61-4.38,14.42-6.61.48,1.08.06,1.98-1.2,2.7,3.3-.72,3.72.12,1.2,2.4.6.18,1.2.42,1.8.6-3.12,2.46-6.49,4.44-10.21,6.01,2.4-.42,4.81-.78,7.21-1.2Z" style="fill: #282e25; fill-rule: evenodd; stroke-width: 0px;"/>
    </g>
    <path d="m187.88,267.15c-3.66,8.11-6.97,16.34-9.91,24.63,5.11-1.68,10.21-3.42,15.32-5.11-1.56-5.65-2.88-11.35-3.9-17.12-.12-1.08-.6-1.92-1.5-2.4Z" style="fill: #282e25; fill-rule: evenodd; stroke-width: 0px;"/>
  </g>
  <g id="Capa_2-2" data-name="Capa 2-2">
    <path d="m402.5,95.78c.24-2.82.42-5.65.36-8.47l-1.68,7.87c-.42-.24-.78-.48-1.14-.72-4.93.42-9.85.78-14.72,1.2-6.79,27.03-10.63,54.48-11.41,82.29l.6-.6c.24,2.52.84,4.93,1.8,7.21.66-3.18,1.14-6.37,1.5-9.61-.06-1.14.24-1.32.9-.6.3,3.18.42,6.43.3,9.61v6.61c1.02,0,1.8.42,2.4,1.2-.24-3.3.06-6.49.9-9.61.3,1.56.42,3.18.3,4.81.18.48.48.9.9,1.2.6-.66,1.02-1.5,1.2-2.4.3-3.18.42-6.43.3-9.61h1.8c2.94-19.46,7.63-38.5,14.12-57.06,2.04-7.51,3.06-15.08,3-22.82-.48-.12-.96-.3-1.44-.48h0Z" style="fill: #ffc200; stroke-width: 0px;"/>
  </g>
  <g>
    <path d="m77.3.16c1.5-.24.54,3.96.78,4.63,1.08,1.74-18.38.42-18.68.78-3.66,0-4.75,1.14-4.75,4.93.24,3.96-1.44,10.87,4.75,10.09h12.01c2.46.36,1.74-3.3,1.86-4.87.6-1.14-10.99-.24-11.23-.54-1.44.18-.6-3.3-.78-4.02-.6-1.74,15.26-.42,15.74-.78.6,0,1.08.48,1.08,1.08.72,18.98-1.56,12.91-18.86,13.94-10.87.6-10.21-7.63-9.97-15.74C49.25,2.74,52.02.16,59.22.16h18.08Z" style="fill: #282e25; stroke-width: 0px;"/>
    <path d="m103.37.16c5.41,0,7.75,2.4,7.75,7.39.36,4.38-.84,8.83-5.29,9.43l6.07,7.51c1.14,1.68-4.87.66-5.35.96-.9.54-6.25-7.45-6.79-7.81h-11.47v6.97c0,.42-.36.78-.78.78-.72-.3-4.75.72-4.63-.78V1.24c-1.2-2.28,19.94-.6,20.48-1.08h0Zm-1.08,12.61c3.36.18,3.54-2.1,3.42-4.63,0-2.22-.96-3.18-3.42-3.18h-13.51c-1.02-.54-.24,7.57-.48,7.81h14Z" style="fill: #282e25; stroke-width: 0px;"/>
    <path d="m131.36.16c1.86,0,2.94.54,4.14,2.76-.18.72,13.69,22.52,11.47,22.46-6.55.06-4.69.78-7.81-4.81h-17.18c-3.12,5.71-1.32,4.81-7.93,4.81-2.22.12,11.65-21.92,11.41-22.46,1.5-3.24,3.36-2.76,5.89-2.76h0Zm5.41,16.22c-8.11-14.18-4.38-14.18-12.43,0h12.43Z" style="fill: #282e25; stroke-width: 0px;"/>
    <path d="m175.81.16c1.5-.24.54,3.9.78,4.63,0,.42-.36.78-.78.78h-18.32c-1.32,0-1.92.6-1.92,1.86-.06,1.44-.06,3.06,1.92,2.94,5.47.66,19.82-2.94,19.7,6.31.42,4.44-.66,8.95-6.37,8.71h-19.88c-1.44.12-.6-3.3-.78-3.96,0-.54.24-.84.78-.84h18.92c1.26,0,1.92-.6,1.92-1.98,0-1.5.24-3.6-1.86-3.42h-13.45c-4.93.06-6.85-4.87-6.25-9.07,0-3.72,2.22-5.95,6.37-5.95-.06,0,19.22,0,19.22,0Z" style="fill: #282e25; stroke-width: 0px;"/>
    <path d="m206.44.16c1.5-.24.54,3.9.78,4.63,0,.42-.36.78-.78.78h-18.32c-1.32,0-1.92.6-1.92,1.86-.06,1.44-.06,3.06,1.92,2.94,5.47.66,19.82-2.94,19.7,6.31.42,4.44-.66,8.95-6.37,8.71h-19.88c-1.44.12-.6-3.3-.78-3.96,0-.54.24-.84.78-.84h18.92c1.26,0,1.92-.6,1.92-1.98,0-1.5.24-3.6-1.86-3.42h-13.45c-4.93.06-6.91-4.87-6.25-9.07,0-3.72,2.22-5.95,6.37-5.95-.06,0,19.22,0,19.22,0Z" style="fill: #282e25; stroke-width: 0px;"/>
    <path d="m242.48.16c10.57-.42,11.47,6.85,10.99,15.08,0,7.03-3.18,10.15-10.99,10.15h-16.76c-.6,0-1.08-.48-1.08-1.08V1.24c0-.6.48-1.08,1.08-1.08,0,0,16.76,0,16.76,0Zm-11.95,20.42c4.93-.6,17.66,2.58,17.54-5.71.42-4.08-.36-9.31-5.53-9.31-.24.24-12.97-.54-12.49.48v14.06c0,.24.24.48.48.48Z" style="fill: #282e25; stroke-width: 0px;"/>
    <path d="m283.93.16c1.5-.24.54,3.9.78,4.63,0,.42-.36.78-.78.78h-16.1c-3.78,0-4.75,1.02-4.75,4.81h20.24c1.44-.18.54,3.3.78,4.02,1.08,1.74-20.72.36-21.02.78-.12,3.9.78,5.53,4.75,5.41h16.1c1.44-.06.6,3.3.78,4.02.84,1.74-16.4.36-16.82.78-11.05.54-10.39-7.57-10.21-15.74,0-6.91,2.82-9.49,10.21-9.49h16.04Z" style="fill: #282e25; stroke-width: 0px;"/>
    <path d="m304.05.16c1.2-.84,10.57,20.36,11.77,19.82,1.02.06,10.27-20.42,11.53-19.82.3.24,6.43-.72,5.23.84l-11.83,21.62c-1.62,3.18-3.42,2.7-5.95,2.76-1.86,0-3-.54-4.14-2.76l-11.89-21.68c-1.2-1.5,4.87-.54,5.29-.78Z" style="fill: #282e25; stroke-width: 0px;"/>
    <path d="m355.11.16c10.93-.54,10.27,7.63,10.09,15.74.96,12.43-12.97,9.07-21.14,9.49-10.93.54-10.27-7.63-10.09-15.74-.96-12.37,12.97-9.07,21.14-9.49h0Zm-15.74,15.62c0,3.78,1.08,4.81,4.81,4.81h10.81c6.37.84,4.56-6.19,4.81-10.21,0-3.78-1.08-4.81-4.81-4.81h-10.81c-6.37-.84-4.56,6.19-4.81,10.21Z" style="fill: #282e25; stroke-width: 0px;"/>
    <path d="m374.03.16c.42,0,.78.36.78.78-.06,23.13-2.52,18.68,19.64,19.04,1.5-.18.54,3.84.78,4.56,1.08,1.8-15.56.42-15.86.84-7.21,0-9.97-2.58-9.97-9.49V.94c-.12-1.5,3.9-.54,4.63-.78Z" style="fill: #282e25; stroke-width: 0px;"/>
    <path d="m423.88.16c1.5-.18.54,3.9.78,4.63,0,.42-.36.78-.78.78h-15.62c-3.66,0-4.63,1.02-4.63,4.81h20.24c1.44-.18.54,3.3.78,4.02,1.08,1.74-20.72.36-21.02.78-.12,3.9.72,5.53,4.63,5.41h15.62c1.44-.06.6,3.3.78,4.02,0,.54-.3.78-.78.78h-15.68c-7.21,0-9.97-2.64-9.97-9.49v-6.25c0-6.91,2.76-9.49,9.97-9.49,0,0,15.68,0,15.68,0Z" style="fill: #282e25; stroke-width: 0px;"/>
    <path d="m434.87.94v23.67c.12,1.5-3.9.54-4.63.78-.42,0-.78-.36-.78-.78V.94c-.12-1.5,3.9-.54,4.63-.78.42,0,.78.36.78.78Z" style="fill: #282e25; stroke-width: 0px;"/>
    <path d="m461.18.16c4.81,0,6.73,1.86,6.73,5.95-.06,1.8.24,4.08-1.98,6.37,2.34,1.2,2.76,4.2,2.58,6.79-.12,4.08-6.49,6.13-6.49,6.13h-21.26c-2.34,1.14-.54-23.67-1.08-24.15-.96-2.34,20.9-.54,21.5-1.08Zm-1.2,10.21c3.06.06,3.24-1.08,3.12-3.06,0-1.56-.84-2.34-2.7-2.34h-14.84c-.96-.24-.24,5.05-.48,5.41h14.9Zm-14.9,9.73c-.6,1.08,15.14.24,15.32.48,1.86,0,2.7-.66,2.7-2.22.12-2.1-.06-3.3-3.12-3.18h-14.9v4.93Z" style="fill: #282e25; stroke-width: 0px;"/>
    <path d="m493.86.16c10.93-.54,10.27,7.63,10.09,15.74.96,12.43-12.97,9.07-21.14,9.49-10.93.54-10.27-7.63-10.09-15.74-.96-12.37,12.97-9.07,21.14-9.49h0Zm-16.34,15.62c0,3.78,1.08,4.81,4.81,4.81h10.81c6.37.84,4.56-6.19,4.81-10.21,0-3.78-1.08-4.81-4.81-4.81h-10.81c-6.37-.84-4.56,6.19-4.81,10.21Z" style="fill: #282e25; stroke-width: 0px;"/>
    <path d="m512.78.16c.42,0,.78.36.78.78-.06,23.13-2.52,18.68,19.64,19.04,1.5-.18.54,3.84.78,4.56,1.08,1.8-15.56.42-15.86.84-7.21,0-9.97-2.58-9.97-9.49V.94c-.12-1.5,3.9-.54,4.63-.78Z" style="fill: #282e25; stroke-width: 0px;"/>
  </g>
  <g>
    <path d="m327.12,339.05c-.24-.36-.36-.66-.54-1.02l7.69-.84c.12.3.18.54.36.84l9.13,15.92c.3.54.72.66,1.14.66.42-.06.72-.24.9-.84l5.29-17.54c.06-.24.18-.6.18-.9l7.57-.84c-.06.36-.12.72-.3,1.14l-6.55,20.06c-1.02,3.18-3.06,4.87-6.49,5.23-3.42.36-5.83-.78-7.51-3.66l-10.87-18.2Z" style="fill: #282e25; stroke-width: 0px;"/>
    <path d="m385.62,331.42l.72,6.43-18.38,2.04c-.42.06-.54.3-.48.66l.3,2.76,18.86-2.1.54,4.69-18.86,2.1.3,2.94c.06.42.24.6.66.6l18.38-2.04.72,6.19-22.04,2.46c-2.28.24-3.54-.72-3.78-3l-1.98-17.6c-.24-2.16.78-3.36,3.06-3.66l21.98-2.46Z" style="fill: #282e25; stroke-width: 0px;"/>
    <path d="m420.88,347.22c.42,3.66-1.62,5.47-3.96,5.71-2.04.24-3.66-.18-4.93-1.38l-15.02-13.88c-.18-.18-.42-.3-.6-.24-.3.06-.6.3-.54.72l1.86,16.4-6.37.72-2.16-19.1c-.48-4.14,1.74-5.95,4.99-6.31,2.28-.24,3.78.18,5.53,1.8l13.39,12.85c.18.24.42.24.66.24.3-.06.48-.3.42-.72l-1.74-15.68,6.37-.72,2.1,19.58Z" style="fill: #282e25; stroke-width: 0px;"/>
    <path d="m447.73,324.45l.72,6.43-18.38,2.04c-.42.06-.54.3-.48.66l.3,2.76,18.86-2.1.54,4.69-18.86,2.1.3,2.94c.06.42.24.6.66.6l18.38-2.04.72,6.19-22.04,2.46c-2.28.24-3.54-.72-3.78-3l-1.98-17.6c-.24-2.16.78-3.36,3.06-3.66l21.98-2.46Z" style="fill: #282e25; stroke-width: 0px;"/>
    <path d="m465.75,346.98c-4.32.48-7.69-.66-10.21-2.82-2.16-1.92-3.66-4.63-4.02-7.81-.42-3.48.78-6.85,2.88-9.37,1.92-2.22,4.69-3.72,8.59-4.2l13.09-1.44.72,6.43-13.09,1.44c-2.16.24-3.48,1.02-4.38,2.1-1.02,1.14-1.5,2.76-1.32,4.32.18,1.44.9,2.76,1.92,3.66,1.14,1.02,2.82,1.68,5.11,1.44l6.19-.72c.3-.06.42-.18.42-.54l-.72-6.49,6.43-.72,1.32,11.71c.12,1.02-.3,1.62-1.38,1.74l-11.53,1.26Z" style="fill: #282e25; stroke-width: 0px;"/>
    <path d="m512.54,340.67c.24.36.36.66.54,1.02l-7.33.84c-.12-.3-.24-.54-.36-.78l-1.62-2.76-14.3,1.62-.9,3.06c-.06.3-.18.6-.18.9l-7.51.84c.06-.36.12-.72.3-1.14l6.55-20.18c1.02-3.18,3.06-4.87,6.55-5.29,3.36-.36,5.77.84,7.51,3.72l10.75,18.14Zm-11.77-6.85l-4.69-8.23c-.3-.54-.72-.66-1.2-.6-.42.06-.78.3-.96.9l-2.7,9.07,9.55-1.14Z" style="fill: #282e25; stroke-width: 0px;"/>
    <path d="m538.91,320.79l-17.42,1.92c-.78.06-1.2.3-1.44.66-.3.36-.42.78-.36,1.32.06.54.36.96.78,1.2.3.24.66.3,1.44.18l10.63-1.2c2.7-.3,4.63.36,6.07,1.56,1.44,1.2,2.4,2.88,2.64,4.81.18,1.74-.3,3.54-1.26,4.93-1.14,1.68-3,2.88-5.83,3.18l-18.74,2.1-.72-6.19,17.6-1.98c1.02-.12,1.5-.36,1.74-.84.24-.3.3-.72.24-1.14-.06-.48-.3-.96-.66-1.26s-.84-.42-1.8-.36l-9.85,1.08c-3.24.36-5.17-.3-6.61-1.5s-2.4-2.82-2.58-4.81c-.24-1.92.36-3.78,1.5-5.29s2.88-2.52,6.07-2.88l17.78-1.98.78,6.49Z" style="fill: #282e25; stroke-width: 0px;"/>
  </g>
</svg>